<svg width="19" height="17" viewBox="0 0 19 17" fill="none" xmlns="http://www.w3.org/2000/svg">
<g clip-path="url(#clip0_263_944)">
<path d="M16.8138 10.8245C16.6971 9.82016 16.0793 8.96526 15.2936 8.40495C15.2869 8.36648 15.6076 8.05267 15.6621 7.98274C16.687 6.66631 16.4218 4.71613 15.0737 3.76683C13.431 2.61036 11.1453 3.57715 10.7994 5.60774C10.4032 5.46526 10.0238 5.31141 9.59488 5.29655C9.09795 5.27907 8.6581 5.43379 8.20147 5.60774C8.03778 4.54568 7.21012 3.63222 6.21291 3.36911C3.98344 2.78169 2.04944 5.01858 2.92411 7.25634C3.10962 7.73187 3.38662 8.03344 3.70895 8.40407C2.90312 8.96788 2.334 9.81404 2.17032 10.8228C-0.0675424 8.74935 -0.746624 5.40057 0.947302 2.71264C2.82925 -0.272503 6.85338 -0.914985 9.4866 1.39358C12.0115 -0.760265 15.7234 -0.379146 17.7556 2.28869C19.7912 4.96089 19.2237 8.65407 16.813 10.8245H16.8138Z" fill="#F5EFE6"/>
<path d="M9.15877 11.1049C10.5732 10.9283 11.6661 11.9388 11.7651 13.3934C11.8054 13.9825 11.7517 14.6346 11.7467 15.2282L9.513 17L7.30956 15.2885C7.25164 15.2474 7.24324 15.2019 7.23485 15.1338C7.17777 14.6748 7.20631 13.4415 7.29025 12.9852C7.46065 12.0577 8.24298 11.2194 9.15877 11.1049Z" fill="#F5EFE6"/>
<path d="M12.8799 14.3016C12.8883 13.5437 12.8833 12.7701 12.6004 12.0612C12.4032 11.5664 12.0666 11.1268 11.6922 10.7657C11.437 10.5201 11.3279 10.6591 11.5503 10.2325C12.4149 8.58043 14.824 8.69931 15.5593 10.4108C15.6962 10.7308 15.8355 11.4336 15.7742 11.7701C15.7524 11.8899 15.1455 12.4039 15.0129 12.5236C14.3254 13.1425 13.5993 13.7247 12.8799 14.3025V14.3016Z" fill="#F5EFE6"/>
<path d="M7.56364 10.5848C7.55609 10.5988 7.35883 10.7194 7.31014 10.7658C6.93493 11.1268 6.59916 11.5656 6.4019 12.0612C6.11902 12.7701 6.11399 13.5437 6.12238 14.3016C5.13691 13.5 4.14054 12.6976 3.23482 11.8016C3.19201 11.1469 3.32211 10.4502 3.72755 9.93533C4.66517 8.74477 6.34734 8.75614 7.27237 9.95631C7.34875 10.056 7.62576 10.4747 7.5628 10.5857L7.56364 10.5848Z" fill="#F5EFE6"/>
<path d="M7.42947 6.16L7.14995 6.26751L6.73108 6.42835C6.27612 6.60405 5.9177 6.9773 5.74982 7.45108L5.59537 7.88727L5.49128 8.17923L5.38719 7.88727L5.23274 7.45108C5.06402 6.9773 4.70559 6.60405 4.25063 6.42835L3.83177 6.26751L3.55225 6.16L3.83177 6.05248L4.25063 5.89077C4.70559 5.71507 5.06402 5.34182 5.23274 4.86804L5.38719 4.43185L5.49128 4.13989L5.59537 4.43185L5.74982 4.86804C5.9177 5.34182 6.27612 5.71507 6.73108 5.89077L7.14995 6.05248L7.42947 6.16Z" fill="#F5EFE6"/>
<path d="M11.4391 8.19493L11.1587 8.30332L10.7399 8.46416C10.2849 8.63899 9.92649 9.01311 9.75861 9.48601L9.60331 9.92308L9.50007 10.2142L9.39682 9.92308L9.24153 9.48601C9.07281 9.01311 8.71438 8.63899 8.25942 8.46416L7.83804 8.30157L7.56104 8.19493L7.83804 8.08829L8.25942 7.9257C8.71438 7.75087 9.07281 7.37762 9.24153 6.90385L9.39682 6.46766L9.50007 6.17657L9.60331 6.46766L9.75861 6.90385C9.92649 7.37762 10.2849 7.75087 10.7399 7.9257L11.1587 8.08654L11.4391 8.19493Z" fill="#F5EFE6"/>
<path d="M15.4502 6.1836L15.169 6.29199L14.751 6.45283C14.296 6.62853 13.9367 7.00178 13.7689 7.47556L13.6228 7.8864L13.5103 8.20283L13.3978 7.8864L13.2518 7.47556C13.0839 7.00178 12.7255 6.62853 12.2705 6.45283L11.8517 6.29199L11.5713 6.1836L11.8483 6.07695L12.2697 5.91524C12.7246 5.73954 13.0831 5.36629 13.2509 4.89251L13.4155 4.43098L13.5095 4.16437L13.6035 4.43098L13.768 4.89251C13.9359 5.36629 14.2952 5.73954 14.7501 5.91524L15.1707 6.07695L15.4485 6.1836H15.4502Z" fill="#F5EFE6"/>
</g>
<defs>
<clipPath id="clip0_263_944">
<rect width="19" height="17" fill="white"/>
</clipPath>
</defs>
</svg>
