<svg width="24" height="30" viewBox="0 0 24 30" fill="none" xmlns="http://www.w3.org/2000/svg">
<g clip-path="url(#clip0_68_629)">
<path d="M22.3803 9.16543C22.506 9.29075 23.2025 10.1263 23.1943 10.2293C22.4049 10.8169 21.6292 11.4408 21.0666 12.2679C19.6518 14.3483 19.7555 17.5455 21.113 19.6314C21.7931 20.6786 22.872 21.4417 23.9536 22.0126L24.0027 22.1185C23.3827 23.9148 22.506 25.5607 21.4134 27.1008C20.6924 28.1146 19.7829 29.3511 18.5811 29.78C16.3742 30.5681 14.678 28.7802 12.6022 28.7746C9.71526 28.769 8.11471 31.4315 5.27415 28.9278C1.65244 25.739 -0.803009 18.4701 0.243081 13.7161C1.09525 9.83661 4.44656 6.57816 8.54899 7.47493C9.98292 7.78685 11.4469 8.90085 12.8726 8.48589C13.9133 8.18232 14.8583 7.6476 15.9618 7.41645C18.1359 6.96528 20.7689 7.55848 22.3803 9.16543Z" fill="#6B0F1A"/>
<path d="M17.86 0V1.43706C17.86 3.45618 15.0195 6.91794 12.9464 6.91794H11.9413C11.7009 3.40884 14.4923 0.32306 17.86 0.002785V0Z" fill="#6B0F1A"/>
</g>
<defs>
<clipPath id="clip0_68_629">
<rect width="24" height="30" fill="white"/>
</clipPath>
</defs>
</svg>
