<svg width="36" height="25" viewBox="0 0 36 25" fill="none" xmlns="http://www.w3.org/2000/svg">
<g clip-path="url(#clip0_665_226)">
<path d="M35.9971 9.09697C35.9454 7.68235 34.7482 6.52969 33.3497 6.54623C32.6014 6.55451 31.9321 6.88266 31.4587 7.40108C31.2546 7.39556 31.1158 7.38177 31.0777 7.3542C30.4438 5.8789 29.8533 4.21886 28.8058 2.98071C26.5257 0.292097 19.8677 -0.116022 16.5754 0.0218561C14.1348 0.121128 9.76779 0.749851 7.81963 2.29684C6.37212 3.44398 5.59395 5.70794 4.86475 7.3542C4.8321 7.37902 4.71238 7.3928 4.53825 7.39832C4.06209 6.87714 3.37915 6.54899 2.62275 6.54623C1.22421 6.54072 0.0379081 7.70716 -0.000184252 9.12455C-0.0437184 10.6219 1.14531 11.8518 2.61458 11.8518C2.68261 11.8518 2.74791 11.849 2.81321 11.8435C0.922195 14.3253 1.13442 18.0011 3.42269 20.1658C3.53968 21.3019 3.31113 22.6173 3.43629 23.7286C3.50159 24.3214 3.9723 24.8454 4.56274 24.9281C5.26745 25.0246 7.37069 25.0163 8.089 24.9336C8.47264 24.8895 9.21 24.3214 9.21 23.9354V23.1357C9.21 22.6641 9.58821 22.2836 10.0508 22.2836H25.8945C26.3597 22.2836 26.7352 22.6641 26.7352 23.1357V23.9354C26.7352 24.3214 27.4699 24.8895 27.8535 24.9336C28.5745 25.0163 30.6778 25.0246 31.3798 24.9281C31.9729 24.8454 32.4409 24.3214 32.5089 23.7286C32.6286 22.6366 32.4055 21.3488 32.5225 20.2347C34.8271 18.037 35.0339 14.306 33.0613 11.8325C33.1647 11.8463 33.2735 11.8518 33.3823 11.8518C34.8625 11.8518 36.0542 10.6081 35.9971 9.09697ZM7.56931 7.89192C8.03458 6.5876 8.68759 4.94961 9.62358 4.32916C12.9213 2.15069 22.8307 2.21136 26.191 4.2547C26.7869 4.61594 27.0944 5.08473 27.4236 5.68863C27.7936 6.36423 28.1201 7.12808 28.3922 7.88641C28.5555 8.34692 28.2208 8.83225 27.7392 8.83225H8.22232C7.74345 8.83225 7.40878 8.34968 7.56931 7.89192ZM9.78411 16.3328C9.17463 16.5617 8.69304 17.047 8.46992 17.6647L8.12165 18.6133L7.7761 17.6647C7.55027 17.047 7.07139 16.5617 6.46191 16.3328L5.52593 15.9798L6.46191 15.6296C7.07139 15.4007 7.55027 14.9154 7.7761 14.2977L8.12165 13.3491L8.46992 14.2977C8.69304 14.9154 9.17463 15.4007 9.78411 15.6296L10.7201 15.9798L9.78411 16.3328ZM29.5214 16.3328C28.9119 16.5617 28.4303 17.047 28.2072 17.6647L27.8589 18.6133L27.5134 17.6647C27.2875 17.047 26.8087 16.5617 26.1992 16.3328L25.2632 15.9798L26.1992 15.6296C26.8087 15.4007 27.2875 14.9154 27.5134 14.2977L27.8589 13.3491L28.2072 14.2977C28.4303 14.9154 28.9119 15.4007 29.5214 15.6296L30.4574 15.9798L29.5214 16.3328Z" fill="#F5EFE6"/>
</g>
<defs>
<clipPath id="clip0_665_226">
<rect width="36" height="25" fill="white"/>
</clipPath>
</defs>
</svg>
