<svg width="19" height="13" viewBox="0 0 19 13" fill="none" xmlns="http://www.w3.org/2000/svg">
<g clip-path="url(#clip0_685_590)">
<path d="M18.9984 4.7303C18.9712 3.9947 18.3393 3.39531 17.6012 3.40392C17.2063 3.40822 16.853 3.57886 16.6032 3.84844C16.4955 3.84557 16.4222 3.8384 16.4021 3.82406C16.0675 3.05691 15.7559 2.19368 15.203 1.54985C13.9997 0.151768 10.4857 -0.0604533 8.74812 0.0112431C7.46001 0.0628646 5.1552 0.3898 4.127 1.19423C3.36304 1.79075 2.95234 2.968 2.56749 3.82406C2.55025 3.83697 2.48707 3.84413 2.39516 3.847C2.14386 3.57599 1.78342 3.40535 1.3842 3.40392C0.646089 3.40105 0.0199833 4.0076 -0.00012098 4.74464C-0.0230973 5.52326 0.604444 6.1628 1.3799 6.1628C1.4158 6.1628 1.45026 6.16136 1.48473 6.1585C0.48669 7.44903 0.5987 9.36046 1.80639 10.4861C1.86814 11.0769 1.74752 11.7609 1.81357 12.3387C1.84804 12.647 2.09647 12.9195 2.40809 12.9625C2.78002 13.0127 3.89006 13.0084 4.26917 12.9654C4.47165 12.9424 4.86081 12.647 4.86081 12.4463V12.0304C4.86081 11.7852 5.06042 11.5873 5.30454 11.5873H13.6665C13.9121 11.5873 14.1102 11.7852 14.1102 12.0304V12.4463C14.1102 12.647 14.498 12.9424 14.7004 12.9654C15.081 13.0084 16.191 13.0127 16.5615 12.9625C16.8746 12.9195 17.1216 12.647 17.1575 12.3387C17.2206 11.7709 17.1029 11.1012 17.1646 10.5219C18.381 9.3791 18.4901 7.43899 17.449 6.15276C17.5035 6.15993 17.561 6.1628 17.6184 6.1628C18.3996 6.1628 19.0286 5.5161 18.9984 4.7303ZM3.99489 4.10368C4.24045 3.42543 4.5851 2.57367 5.07909 2.25104C6.81954 1.11824 12.0495 1.14978 13.823 2.21232C14.1375 2.40017 14.2998 2.64394 14.4735 2.95797C14.6688 3.30928 14.8412 3.70648 14.9848 4.10081C15.0709 4.34027 14.8943 4.59265 14.6401 4.59265H4.33954C4.0868 4.59265 3.91017 4.34171 3.99489 4.10368ZM5.16381 8.49293C4.84214 8.61195 4.58797 8.86432 4.47021 9.18552L4.2864 9.67879L4.10403 9.18552C3.98484 8.86432 3.7321 8.61195 3.41043 8.49293L2.91644 8.30939L3.41043 8.12728C3.7321 8.00826 3.98484 7.75589 4.10403 7.43469L4.2864 6.94142L4.47021 7.43469C4.58797 7.75589 4.84214 8.00826 5.16381 8.12728L5.6578 8.30939L5.16381 8.49293ZM15.5807 8.49293C15.259 8.61195 15.0049 8.86432 14.8871 9.18552L14.7033 9.67879L14.5209 9.18552C14.4017 8.86432 14.149 8.61195 13.8273 8.49293L13.3333 8.30939L13.8273 8.12728C14.149 8.00826 14.4017 7.75589 14.5209 7.43469L14.7033 6.94142L14.8871 7.43469C15.0049 7.75589 15.259 8.00826 15.5807 8.12728L16.0747 8.30939L15.5807 8.49293Z" fill="#6B0F1A"/>
</g>
<defs>
<clipPath id="clip0_685_590">
<rect width="19" height="13" fill="white"/>
</clipPath>
</defs>
</svg>
