<svg width="28" height="19" viewBox="0 0 28 19" fill="none" xmlns="http://www.w3.org/2000/svg">
<g opacity="0.5" clip-path="url(#clip0_54_1896)">
<path d="M27.782 1.07084C27.5651 0.690049 27.1204 0.271837 26.7151 0.110056C26.6264 0.0748378 26.4522 0.0847428 26.3876 0H1.61349C1.59268 0.00330167 1.58063 0.049525 1.55872 0.0550278C0.886159 0.222312 0.446913 0.605306 0.164306 1.23592C0.129254 1.31406 0.13035 1.33718 0.109538 1.40101C0.10187 1.42302 0.0613411 1.43402 0.0547688 1.45494C0.0339567 1.52867 0.093107 1.62442 0 1.67505V17.3261C0.0690087 17.5231 0.113919 17.6716 0.219075 17.8741C0.454581 18.3287 0.742665 18.6346 1.2312 18.836C1.3024 18.8646 1.33307 18.8701 1.39441 18.891C1.41742 18.8976 1.42837 18.9395 1.44918 18.945C1.52257 18.9659 1.61787 18.9076 1.66826 19H26.3328C26.5311 18.9054 26.8422 18.8613 27.0437 18.726C27.3932 18.4904 27.6615 18.1559 27.8368 17.7652C27.8718 17.6859 27.8696 17.6639 27.8916 17.6001C27.8981 17.5781 27.9398 17.5671 27.9463 17.5451C27.966 17.4724 27.908 17.3756 28 17.3261V1.67505C27.9113 1.49015 27.8905 1.26344 27.782 1.07084ZM16.8031 8.86718C17.1383 8.74282 17.4022 8.47758 17.5271 8.14081L17.7177 7.62245L17.9083 8.14081C18.0321 8.47758 18.2961 8.74282 18.6323 8.86718L19.1472 9.05978L18.6323 9.25127C18.2961 9.37564 18.0321 9.64087 17.9083 9.97764L17.7177 10.496L17.5271 9.97764C17.4022 9.64087 17.1383 9.37564 16.8031 9.25127L16.2871 9.05978L16.8031 8.86718ZM14.264 8.54472L14.034 8.04286L14.5334 8.27398C14.8577 8.42366 15.2323 8.42366 15.5565 8.27398L16.056 8.04286L15.826 8.54472C15.677 8.87158 15.677 9.24687 15.826 9.57374L16.056 10.0756L15.5565 9.84447C15.2323 9.6948 14.8577 9.6948 14.5334 9.84447L14.034 10.0756L14.264 9.57374C14.413 9.24687 14.413 8.87158 14.264 8.54472ZM11.3098 8.86718C11.6449 8.74282 11.9089 8.47758 12.0327 8.14081L12.2244 7.62245L12.415 8.14081C12.5388 8.47758 12.8028 8.74282 13.139 8.86718L13.6539 9.05978L13.139 9.25127C12.8028 9.37564 12.5388 9.64087 12.415 9.97764L12.2244 10.496L12.0327 9.97764C11.9089 9.64087 11.6449 9.37564 11.3098 9.25127L10.7938 9.05978L11.3098 8.86718ZM2.29372 5.7383C2.29372 5.28597 2.65957 4.91839 3.10977 4.91839H8.83092C9.28112 4.91839 9.64698 5.28597 9.64698 5.7383V9.75863C9.64698 10.211 9.28112 10.5785 8.83092 10.5785H3.10977C2.65957 10.5785 2.29372 10.211 2.29372 9.75863V5.7383ZM14.8763 16.0857C14.7722 16.1903 14.6298 16.2552 14.471 16.2552H2.86769C2.55113 16.2552 2.29372 15.9966 2.29372 15.6785C2.29372 15.52 2.35834 15.3748 2.4624 15.2713C2.56537 15.1668 2.70996 15.1018 2.86769 15.1018H14.471C14.7876 15.1018 15.045 15.3605 15.045 15.6785C15.045 15.837 14.9804 15.9823 14.8763 16.0857ZM24.8453 13.3949C24.7424 13.4994 24.5978 13.5644 24.44 13.5644H2.86769C2.55113 13.5644 2.29372 13.3057 2.29372 12.9877C2.29372 12.8281 2.35834 12.6839 2.4624 12.5794C2.56537 12.4759 2.70996 12.411 2.86769 12.411H24.44C24.7566 12.411 25.014 12.6685 25.014 12.9877C25.014 13.1472 24.9494 13.2903 24.8453 13.3949ZM25.7183 4.71258C25.5924 4.84025 25.4171 4.91839 25.2243 4.91839H17.6345C17.2489 4.91839 16.9356 4.60473 16.9356 4.21733C16.9356 4.02363 17.0134 3.84754 17.1404 3.72098C17.2675 3.59332 17.4417 3.51518 17.6345 3.51518H25.2243C25.611 3.51518 25.9232 3.82883 25.9232 4.21733C25.9232 4.41103 25.8454 4.58602 25.7183 4.71258Z" fill="#D9D9D9"/>
</g>
<defs>
<clipPath id="clip0_54_1896">
<rect width="28" height="19" fill="white"/>
</clipPath>
</defs>
</svg>
