<svg width="33" height="19" viewBox="0 0 33 19" fill="none" xmlns="http://www.w3.org/2000/svg">
<path d="M0 1.85159V17.1499C0 18.1718 0.862989 19.0015 1.92931 19.0015H31.0722C32.137 19.0015 33.0016 18.1733 33.0016 17.1499V1.85159C33.0016 0.829714 32.1386 0 31.0722 0H1.92931C0.862989 0 0 0.828224 0 1.85159ZM29.6194 12.6811C27.8655 12.696 26.4081 14.1275 26.4158 15.8092H6.58417C6.59348 14.5371 5.72273 13.3335 4.49189 12.8777C4.07591 12.7243 3.70806 12.7183 3.28743 12.6215L3.26415 6.43065L3.38056 6.31893C5.12361 6.31744 6.59814 4.85762 6.58417 3.19075H26.4158C26.4143 4.91721 27.8919 6.29808 29.6738 6.33979L29.7343 12.5693L29.6194 12.6811Z" fill="#6B0F1A"/>
<path d="M9.89175 9.49923C9.89175 9.5171 9.89175 9.53498 9.89019 9.55285L9.39196 9.73012C8.96978 9.88057 8.63607 10.1993 8.4793 10.606L8.2946 11.0827C8.27597 11.0842 8.25735 11.0842 8.23872 11.0842C8.22009 11.0842 8.20147 11.0842 8.18284 11.0827L7.99814 10.606C7.84137 10.1993 7.50922 9.88057 7.08548 9.73012L6.58725 9.55285C6.58569 9.53498 6.58569 9.5171 6.58569 9.49923C6.58569 9.48135 6.58569 9.46348 6.58725 9.4456L7.08548 9.26834C7.50922 9.11789 7.84137 8.79762 7.99814 8.39245L8.18129 7.91726C8.19992 7.91577 8.22009 7.91577 8.23872 7.91577C8.25735 7.91577 8.27752 7.91577 8.29615 7.91726L8.4793 8.39245C8.63607 8.79762 8.96978 9.11789 9.39196 9.26834L9.89019 9.4456C9.89175 9.46348 9.89175 9.48135 9.89175 9.49923Z" fill="#6B0F1A"/>
<path d="M26.4144 9.49923C26.4144 9.5171 26.4144 9.53498 26.4144 9.55285L25.9161 9.73012C25.4924 9.88057 25.1587 10.1993 25.0035 10.606L24.8203 11.0827H24.8188C24.8001 11.0842 24.7815 11.0842 24.7629 11.0842C24.7443 11.0842 24.7256 11.0842 24.707 11.0827H24.7055L24.5223 10.606C24.3655 10.1993 24.0318 9.88057 23.6097 9.73012L23.1114 9.55285C23.1099 9.53498 23.1099 9.5171 23.1099 9.49923C23.1099 9.48135 23.1099 9.46348 23.1114 9.4456L23.6097 9.26834C24.0318 9.11789 24.3655 8.79762 24.5223 8.39245L24.7055 7.91726C24.7241 7.91577 24.7443 7.91577 24.7629 7.91577C24.7815 7.91577 24.8017 7.91577 24.8203 7.91726L25.0035 8.39245C25.1587 8.79762 25.4924 9.11789 25.9161 9.26834L26.4144 9.4456C26.4144 9.46348 26.4144 9.48135 26.4144 9.49923Z" fill="#6B0F1A"/>
<path d="M21.4537 9.49926L19.6672 10.1323C18.5062 10.545 17.5904 11.4253 17.1605 12.5396L16.4993 14.2526L15.8396 12.5396C15.4097 11.4253 14.4939 10.545 13.3313 10.1323L11.5464 9.49926L13.3313 8.86469C14.4939 8.45206 15.4097 7.57319 15.8396 6.45896L16.4993 4.74591L17.1605 6.45896C17.5904 7.57319 18.5062 8.45206 19.6672 8.86469L21.4537 9.49926Z" fill="#6B0F1A"/>
</svg>
