<svg width="19" height="19" viewBox="0 0 19 19" fill="none" xmlns="http://www.w3.org/2000/svg">
<g clip-path="url(#clip0_263_960)">
<path d="M18.741 7.76692C18.5155 7.42096 17.0078 5.92953 16.6608 5.74681C15.6717 5.22555 15.269 5.98239 14.408 5.91098C13.7279 5.8544 13.1443 5.271 13.0868 4.59113C13.0246 3.84542 13.585 3.49853 13.3837 2.67861C13.2464 2.12211 11.966 0.879246 11.4909 0.47207C11.1031 0.139094 10.7311 -0.0491898 10.2003 0.0110982C9.91921 0.0426335 9.652 0.171557 9.43953 0.353349L0.352408 9.43829C-0.091092 9.95213 -0.109648 10.6663 0.25777 11.2293C0.483232 11.5753 1.99095 13.0667 2.33703 13.2494C3.32701 13.7707 3.72876 13.0129 4.59071 13.0852C5.27081 13.1418 5.85441 13.7252 5.91101 14.4051C5.97317 15.1508 5.41369 15.4977 5.61503 16.3176C5.75142 16.8704 7.05223 18.1402 7.52728 18.5436C8.15078 19.0723 8.89396 19.1892 9.55921 18.6429L18.6649 9.53753C19.0898 9.02091 19.1038 8.3225 18.741 7.76692ZM7.71377 7.8606C7.36862 7.98767 7.09584 8.26035 6.9678 8.60539L6.7711 9.13685L6.57533 8.60539C6.44729 8.26035 6.17451 7.98767 5.82936 7.8606L5.29864 7.66397L5.82936 7.46733C6.17451 7.33934 6.44729 7.06758 6.57533 6.72162L6.7711 6.19108L6.9678 6.72162C7.09584 7.06758 7.36862 7.33934 7.71377 7.46733L8.24449 7.66397L7.71377 7.8606ZM10.3553 12.6605C10.3358 13.1159 9.96189 13.4729 9.50819 13.4729H9.49612C9.01737 13.4674 8.63881 13.0667 8.6583 12.589L8.93386 5.97961C8.95335 5.51679 9.34118 5.15413 9.80509 5.16711H9.80973C10.2838 5.17917 10.6568 5.578 10.6364 6.05196L10.3553 12.6605ZM13.4941 11.6151C13.148 11.7422 12.8762 12.0149 12.7481 12.3599L12.5514 12.8914L12.3548 12.3599C12.2276 12.0149 11.9549 11.7422 11.6097 11.6151L11.0781 11.4185L11.6097 11.2219C11.9549 11.0939 12.2276 10.8221 12.3548 10.4762L12.5514 9.94563L12.7481 10.4762C12.8762 10.8221 13.148 11.0939 13.4941 11.2219L14.0248 11.4185L13.4941 11.6151Z" fill="#F5EFE6"/>
</g>
<defs>
<clipPath id="clip0_263_960">
<rect width="19" height="19" fill="white"/>
</clipPath>
</defs>
</svg>
