<svg width="21" height="17" viewBox="0 0 21 17" fill="none" xmlns="http://www.w3.org/2000/svg">
<g clip-path="url(#clip0_263_938)">
<path d="M17.9278 4.80165C19.4984 4.75425 20.8315 6.00067 20.9592 7.52813C21.1333 9.61852 20.8434 12.1513 18.1949 12.3625C17.8889 12.3866 17.5905 12.325 17.2879 12.3417C16.0275 14.1701 14.0798 15.4681 11.8447 15.8298C11.2538 17.3565 9.00013 17.4271 8.48025 15.8173C7.81158 13.7477 10.8185 12.6244 11.7458 14.5651C16.8982 13.6987 19.1316 7.47159 15.664 3.56271C10.695 -2.0366 1.45291 3.33488 4.0777 10.3095C4.37442 11.0986 5.17158 11.8985 3.86721 12.2594C2.27628 12.6992 0.572067 11.763 0.141787 10.1964C-0.044188 9.51957 -0.0484147 7.64537 0.132489 6.9677C0.46809 5.70964 1.7285 4.75259 3.05906 4.80248C4.68297 1.1206 8.84374 -0.813468 12.794 0.324854C15.079 0.983402 16.9869 2.65471 17.9278 4.80165Z" fill="#F5EFE6"/>
<path d="M10.6429 2.73401L10.2761 2.74565C5.7484 2.94105 3.55811 8.25849 6.5912 11.5279L6.02144 13.7131C6.08653 14.1638 6.43735 14.4174 6.89637 14.2819L9.13399 13.0346C11.4731 13.6142 13.9415 12.6006 15.1173 10.5376C17.092 7.07277 14.611 2.89532 10.6429 2.73401ZM8.56085 8.08387C8.27766 8.18698 8.05365 8.40733 7.94882 8.68588L7.78821 9.1141L7.62675 8.68588C7.52193 8.40733 7.29875 8.18698 7.01472 8.08387L6.57937 7.92589L7.01472 7.76707C7.29875 7.66397 7.52193 7.44445 7.62675 7.16507L7.78821 6.73685L7.94882 7.16507C8.05365 7.44445 8.27766 7.66397 8.56085 7.76707L8.9962 7.92589L8.56085 8.08387ZM11.2727 8.08387C10.9887 8.18698 10.7655 8.40733 10.6607 8.68588L10.4992 9.1141L10.3386 8.68588C10.2338 8.40733 10.0098 8.18698 9.72658 8.08387L9.29123 7.92589L9.72658 7.76707C10.0098 7.66397 10.2338 7.44445 10.3386 7.16507L10.4992 6.73685L10.6607 7.16507C10.7655 7.44445 10.9887 7.66397 11.2727 7.76707L11.7081 7.92589L11.2727 8.08387ZM13.9837 8.08387C13.7005 8.18698 13.4774 8.40733 13.3725 8.68588L13.2111 9.1141L13.0496 8.68588C12.9448 8.40733 12.7216 8.18698 12.4384 8.08387L12.0022 7.92589L12.4384 7.76707C12.7216 7.66397 12.9448 7.44445 13.0496 7.16507L13.2111 6.73685L13.3725 7.16507C13.4774 7.44445 13.7005 7.66397 13.9837 7.76707L14.4199 7.92589L13.9837 8.08387Z" fill="#F5EFE6"/>
</g>
<defs>
<clipPath id="clip0_263_938">
<rect width="21" height="17" fill="white"/>
</clipPath>
</defs>
</svg>
