<svg width="94" height="94" viewBox="0 0 94 94" fill="none" xmlns="http://www.w3.org/2000/svg">
<g filter="url(#filter0_d_263_1178)">
<circle cx="47" cy="43" r="23" fill="#6B0F1A"/>
<path d="M36.8529 36.2353H57.147" stroke="white" stroke-width="2" stroke-linecap="round"/>
<path d="M36.8529 43H57.147" stroke="white" stroke-width="2" stroke-linecap="round"/>
<path d="M36.8529 49.7647H46.3235" stroke="white" stroke-width="2" stroke-linecap="round"/>
<g clip-path="url(#clip0_263_1178)">
<path d="M54.2592 47.6062L55.2736 47.0902L54.8401 48.1408C54.5591 48.825 54.5892 49.5981 54.9259 50.2576L55.4419 51.272L54.3913 50.8385C53.7071 50.5575 52.934 50.5876 52.2745 50.9243L51.2601 51.4403L51.6935 50.3897C51.9746 49.7055 51.9445 48.9324 51.6078 48.2729L51.0918 47.2585L52.1424 47.6919C52.8266 47.973 53.5997 47.9429 54.2592 47.6062Z" fill="white"/>
</g>
</g>
<defs>
<filter id="filter0_d_263_1178" x="0" y="0" width="94" height="94" filterUnits="userSpaceOnUse" color-interpolation-filters="sRGB">
<feFlood flood-opacity="0" result="BackgroundImageFix"/>
<feColorMatrix in="SourceAlpha" type="matrix" values="0 0 0 0 0 0 0 0 0 0 0 0 0 0 0 0 0 0 127 0" result="hardAlpha"/>
<feOffset dy="4"/>
<feGaussianBlur stdDeviation="12"/>
<feComposite in2="hardAlpha" operator="out"/>
<feColorMatrix type="matrix" values="0 0 0 0 0 0 0 0 0 0 0 0 0 0 0 0 0 0 0.25 0"/>
<feBlend mode="normal" in2="BackgroundImageFix" result="effect1_dropShadow_263_1178"/>
<feBlend mode="normal" in="SourceGraphic" in2="effect1_dropShadow_263_1178" result="shape"/>
</filter>
<clipPath id="clip0_263_1178">
<rect width="5.41176" height="5.41176" fill="white" transform="translate(49.7059 47.8565) rotate(-23.4152)"/>
</clipPath>
</defs>
</svg>
