<svg width="33" height="26" viewBox="0 0 33 26" fill="none" xmlns="http://www.w3.org/2000/svg">
<g clip-path="url(#clip0_665_398)">
<path d="M19.6591 5.10333C17.3835 4.62994 14.8689 4.69716 12.6214 5.2826C6.4304 6.89044 1.67955 12.5039 1.42639 18.9269H31.577C31.3098 12.249 26.182 6.45347 19.6591 5.10333ZM25.5238 11.7C25.0372 11.8792 24.6547 12.2602 24.4746 12.7448L24.1962 13.4899L23.9205 12.7448C23.7405 12.2602 23.3551 11.8792 22.8685 11.7L22.1203 11.4227L22.8685 11.1481C23.3551 10.9689 23.7405 10.5851 23.9205 10.1005L24.1962 9.35543L24.4746 10.1005C24.6547 10.5851 25.0372 10.9689 25.5238 11.1481L26.272 11.4227L25.5238 11.7Z" fill="#F5EFE6"/>
<path d="M0.700679 20.8652L32.1874 20.8484C33.2675 21.0697 33.0397 22.263 32.795 23.0585C32.3336 24.5571 30.9582 25.6887 29.4083 25.91C20.8123 26.0305 12.1854 26.0305 3.59226 25.91C2.08459 25.6971 0.717556 24.6019 0.236564 23.1565C-0.0194026 22.389 -0.28662 21.1873 0.700679 20.8652Z" fill="#F5EFE6"/>
<path d="M19.0768 3.0194C17.3666 2.83732 15.6339 2.83732 13.9237 3.0194C13.6171 -1.00021 19.3806 -1.01142 19.0768 3.0194Z" fill="#F5EFE6"/>
</g>
<defs>
<clipPath id="clip0_665_398">
<rect width="33" height="26" fill="white"/>
</clipPath>
</defs>
</svg>
