<svg width="25" height="20" viewBox="0 0 25 20" fill="none" xmlns="http://www.w3.org/2000/svg">
<g opacity="0.5">
<g clip-path="url(#clip0_665_231)">
<path d="M14.8932 3.92579C13.1693 3.56165 11.2643 3.61336 9.56164 4.0637C4.87148 5.3005 1.27235 9.61853 1.08057 14.5593H23.9219C23.7195 9.42245 19.8348 4.96436 14.8932 3.92579ZM19.3362 9.00013C18.9675 9.13803 18.6777 9.43107 18.5414 9.80384L18.3304 10.377L18.1216 9.80384C17.9852 9.43107 17.6932 9.13803 17.3246 9.00013L16.7578 8.78682L17.3246 8.57565C17.6932 8.43775 17.9852 8.14256 18.1216 7.76979L18.3304 7.19664L18.5414 7.76979C18.6777 8.14256 18.9675 8.43775 19.3362 8.57565L19.903 8.78682L19.3362 9.00013Z" fill="#6B0F1A"/>
<path d="M0.530792 16.0503L24.3844 16.0374C25.2026 16.2076 25.03 17.1255 24.8446 17.7375C24.4952 18.8902 23.4531 19.7608 22.279 19.931C15.7669 20.0236 9.23135 20.0236 2.72138 19.931C1.57921 19.7672 0.543577 18.9247 0.179189 17.8129C-0.0147248 17.2225 -0.217163 16.2981 0.530792 16.0503Z" fill="#6B0F1A"/>
<path d="M14.4521 2.32267C13.1565 2.18261 11.8439 2.18261 10.5483 2.32267C10.316 -0.769341 14.6823 -0.77796 14.4521 2.32267Z" fill="#6B0F1A"/>
</g>
</g>
<defs>
<clipPath id="clip0_665_231">
<rect width="25" height="20" fill="white"/>
</clipPath>
</defs>
</svg>
