<svg width="17" height="17" viewBox="0 0 17 17" fill="none" xmlns="http://www.w3.org/2000/svg">
<g clip-path="url(#clip0_263_931)">
<path d="M13.0507 4.31628C12.9522 4.31628 12.6676 4.03556 12.6676 3.93465V0H5.31607C4.77543 0 3.99902 0.738492 3.99902 1.27791V7.0721C5.55921 6.89504 7.16822 7.48584 8.30014 8.54908C8.40882 8.65091 8.68236 9.01052 8.78367 9.02979L14.2766 9.03804C14.6468 9.14446 14.8025 9.57747 14.5289 9.87286C14.4976 9.90772 14.306 10.027 14.2839 10.027H9.40075C9.70744 10.6471 9.92664 11.3242 9.96717 12.0195L14.2489 12.0214C14.8227 12.1691 14.7969 12.9066 14.2185 13.0158H9.96717C9.88612 14.2552 9.31049 15.3964 8.48434 16.3037L7.66741 17H15.6848C16.2512 17 17.0018 16.2533 17.0018 15.6881V4.31628H13.0516H13.0507ZM14.2176 7.03999H6.78232C6.21774 6.92898 6.17169 6.23086 6.72429 6.05013L14.2176 6.04188C14.8154 6.15471 14.8135 6.92715 14.2176 7.03907V7.03999Z" fill="#F5EFE6"/>
<path d="M4.50005 8.03625C2.01425 8.03625 0 10.0417 0 12.5177C0 14.9937 2.01425 16.9991 4.50005 16.9991C6.98586 16.9991 8.99919 14.9937 8.99919 12.5177C8.99919 10.0417 6.98494 8.03625 4.50005 8.03625ZM5.99946 12.658C5.45698 12.858 5.02871 13.2846 4.82793 13.8249L4.51939 14.6552L4.21086 13.8249C4.01008 13.2846 3.58273 12.8589 3.03933 12.658L2.20582 12.3507L3.03933 12.0434C3.58181 11.8443 4.00916 11.4177 4.21086 10.8774L4.51939 10.0472L4.82793 10.8774C5.02779 11.4177 5.45606 11.8434 5.99946 12.0434L6.83297 12.3507L5.99946 12.658Z" fill="#F5EFE6"/>
<path d="M16.7008 3.32001H13.667V0.298157L16.7008 3.32001Z" fill="#F5EFE6"/>
</g>
<defs>
<clipPath id="clip0_263_931">
<rect width="17" height="17" fill="white"/>
</clipPath>
</defs>
</svg>
