<svg width="14" height="19" viewBox="0 0 14 19" fill="none" xmlns="http://www.w3.org/2000/svg">
<path d="M6.651 0.00825847C2.72714 0.206025 -0.229394 3.51449 0.0140114 7.3627C0.213352 10.5167 3.26851 14.8407 5.24932 17.2778C5.58925 17.696 5.97324 18.1925 6.34045 18.5798C6.87133 19.1401 7.13362 19.1401 7.66239 18.5798C8.34015 17.8649 9.05987 16.9193 9.65999 16.1283C11.3366 13.9158 13.7958 10.1788 13.9867 7.39772C14.2637 3.27552 10.8686 -0.201868 6.651 0.00825847ZM10.0545 7.67583C8.93397 8.08372 8.05058 8.94895 7.63721 10.049L7.00142 11.7383L6.36353 10.049C5.94806 8.94895 5.06677 8.08166 3.94627 7.67583L2.22564 7.04957L3.94627 6.42331C5.06677 6.01747 5.95016 5.15019 6.36353 4.05011L7.00142 2.36086L7.63721 4.05011C8.05268 5.15019 8.93397 6.01747 10.0545 6.42331L11.7751 7.04957L10.0545 7.67583Z" fill="#6B0F1A"/>
</svg>
