<svg width="18" height="17" viewBox="0 0 18 17" fill="none" xmlns="http://www.w3.org/2000/svg">
<g clip-path="url(#clip0_515_1692)">
<path d="M15.6492 15.6464C16.1876 16.1174 15.4041 16.6616 14.9527 16.8276C14.3463 17.0505 12.6991 17.0514 12.0767 16.8619C11.4172 16.6616 10.9308 16.1463 10.7737 15.539C10.7717 15.529 10.7697 15.5191 10.7697 15.5092C10.7877 13.9155 10.5946 12.1467 10.7267 10.5648C10.7887 9.81936 11.3211 9.11998 12.1307 8.90159C12.58 8.78066 14.2482 8.78066 14.7086 8.88354C15.0818 8.96656 15.7733 9.32302 15.8114 9.70475C15.8324 9.91863 15.7043 10.1885 15.4591 10.2471C14.8687 10.3861 14.8216 9.90961 14.3423 9.85095C14.0091 9.81034 12.9153 9.80944 12.583 9.85095C12.1267 9.9078 11.8885 10.2751 11.8545 10.6586C11.7294 12.0989 11.9506 13.6836 11.8545 15.1401C11.8545 15.1464 11.8545 15.1536 11.8545 15.16C11.9055 15.6527 12.2448 15.9234 12.7892 15.9613C13.1554 15.9875 14.0721 15.9965 14.4053 15.9198C14.8176 15.8241 14.9017 15.4325 15.387 15.52C15.4691 15.5345 15.5872 15.5922 15.6472 15.6446L15.6492 15.6464Z" fill="#F5EFE6"/>
<path d="M16.0238 12.3958C16.0388 12.3399 15.9987 12.3317 15.9707 12.3002C15.8076 12.1088 15.4233 11.9013 15.3683 11.6657C15.2542 11.1775 15.8216 10.8382 16.2709 11.1378C16.5401 11.3174 17.6789 12.3444 17.8771 12.5862C18.0642 12.8145 18.0292 13.0636 17.8231 13.2712C17.78 13.3145 17.711 13.337 17.6629 13.3822C17.2787 13.7413 16.6832 14.355 16.2699 14.6411C15.8216 14.9524 15.2382 14.605 15.3663 14.1131C15.4123 13.9381 15.6365 13.7738 15.8206 13.6168C15.9057 13.5437 15.8496 13.4147 15.7315 13.4147H13.2147C12.8915 13.4147 12.6363 13.0122 12.7404 12.7315C12.7784 12.6295 12.9976 12.3958 13.1086 12.3958H16.0218H16.0238Z" fill="#F5EFE6"/>
<path d="M9.92419 9.42614V16.8829C9.92419 16.9479 9.86615 17.0002 9.7941 17.0002H4.5403C3.2864 17.0002 2.15158 16.5418 1.32898 15.8009C0.508391 15.0591 -0.000976562 14.0349 -0.000976562 12.905C-0.000976562 10.6426 2.03249 8.80978 4.5403 8.80978H7.95077C7.9978 8.80978 8.04183 8.83234 8.06485 8.87025C8.16592 9.03539 8.25399 9.20866 8.32804 9.38824L8.87744 10.7284C8.91947 10.8303 9.07858 10.8303 9.12061 10.7284L9.67001 9.38824C9.67001 9.38824 9.67101 9.38463 9.67201 9.38283C9.72205 9.2619 9.92219 9.29619 9.92219 9.42524L9.92419 9.42614Z" fill="#F5EFE6"/>
<path d="M12.2188 3.9328L14.0321 4.53833L12.2188 5.14386C11.0389 5.53732 10.1082 6.37658 9.67092 7.44145L8.99943 9.07665L8.32795 7.44145C7.89163 6.37748 6.96096 5.53822 5.78011 5.14386L3.9668 4.53833L5.78011 3.9328C6.95996 3.53934 7.89063 2.70007 8.32795 1.63521L9.00043 0L9.67192 1.63521C10.1082 2.69917 11.0389 3.53843 12.2198 3.9328H12.2188Z" fill="#F5EFE6"/>
</g>
<defs>
<clipPath id="clip0_515_1692">
<rect width="18" height="17" fill="white"/>
</clipPath>
</defs>
</svg>
