<svg width="184" height="155" viewBox="0 0 184 155" fill="none" xmlns="http://www.w3.org/2000/svg">
<path d="M48.5741 100.643C36.873 101.79 27.1309 92.053 28.2779 80.3572C29.1264 71.694 36.124 64.6807 44.782 63.8112C56.4988 62.6328 66.2776 72.4011 65.1043 84.1284C64.2401 92.7916 57.2373 99.7944 48.5741 100.643ZM77.3816 46.4901L71.8191 53.0634C70.0069 55.2161 66.8747 55.6613 64.502 54.1424C56.4935 49.0356 46.2643 47.2391 35.9564 50.7169C32.7824 51.7854 29.8597 53.341 27.1728 55.2476C24.4596 57.1698 22.5583 57.9188 23.0192 53.802C25.35 37.5807 38.1353 25.6335 53.4714 22.9884C57.3368 22.3232 61.2756 23.816 63.8106 26.8172L77.3816 42.8813C78.2563 43.9236 78.2563 45.4425 77.3816 46.4901ZM134.955 100.643C126.291 99.7944 119.283 92.7863 118.424 84.1284C117.256 72.4011 127.03 62.6328 138.747 63.8112C147.405 64.6807 154.402 71.694 155.251 80.3572C156.398 92.0583 146.656 101.795 134.955 100.643ZM156.356 55.2423C153.669 53.3358 150.752 51.7802 147.572 50.7117C137.264 47.2338 127.035 49.0251 119.027 54.1372C116.654 55.6561 113.522 55.2161 111.71 53.0582L106.147 46.4849C105.272 45.4373 105.272 43.9184 106.147 42.8761L119.718 26.812C122.248 23.8107 126.192 22.318 130.057 22.9832C145.393 25.623 158.179 37.5755 160.509 53.7967C160.97 57.9136 159.074 57.1646 156.356 55.2423ZM69.2945 4.38927C66.8014 1.61328 63.245 0.0210099 59.5157 5.90193e-05H59.4528H59.3952C13.7642 -0.0627937 -14.9752 50.0884 8.20173 89.3975C11.2501 94.5462 15.4193 99.6844 20.2956 104.021C25.2558 108.431 31.7034 110.799 38.3396 110.799H63.5854C71.1801 106.326 77.0359 98.9354 79.0786 89.9946C80.1261 85.5949 80.2728 81.2948 79.66 77.2355C79.4191 75.6433 79.88 74.03 80.9223 72.8096L85.9453 66.8596C88.9936 63.2508 94.5561 63.2508 97.6044 66.8596L102.622 72.8044C103.664 74.03 104.12 75.638 103.884 77.2303C103.266 81.2895 103.413 85.5897 104.466 89.9894C106.509 98.9302 112.364 106.321 119.959 110.794H145.205C151.841 110.794 158.289 108.426 163.249 104.016C168.125 99.6792 172.294 94.541 175.343 89.3923C198.509 50.0884 169.77 -0.0627937 124.139 5.90193e-05H124.023C120.289 0.0157722 116.738 1.61328 114.239 4.39451L97.4473 23.0932C94.4146 26.4663 89.1298 26.4663 86.0972 23.0932L69.2945 4.38927Z" fill="#6B0F1A"/>
<path d="M136.835 109.238H91.7644V110.799H136.835V109.238Z" fill="#6B0F1A"/>
<path d="M136.84 105.629H97.8087V107.19H136.84V105.629Z" fill="#6B0F1A"/>
<path d="M136.835 102.02H103.261V103.581H136.835V102.02Z" fill="#6B0F1A"/>
<path d="M46.6833 109.07H1.61267V110.631H46.6833V109.07Z" fill="#6B0F1A"/>
<path d="M46.6833 105.462H7.65176V107.022H46.6833V105.462Z" fill="#6B0F1A"/>
<path d="M46.6833 101.853H13.1095V103.414H46.6833V101.853Z" fill="#6B0F1A"/>
<path d="M73.8671 120.557L67.1157 154.565H59.7305L63.7164 134.358L50.7478 150.972H47.249L40.2514 134.164L36.1712 154.571H28.786L35.5898 120.562H42.0008L50.5016 141.743L67.1157 120.562H73.8671V120.557Z" fill="#6B0F1A"/>
<path d="M88.538 126.873L87.0819 134.259H102.874L101.658 140.382H85.8196L84.264 148.254H102.821L101.512 154.571H75.1818L81.9856 120.562H107.687L106.378 126.879H88.5485L88.538 126.873Z" fill="#6B0F1A"/>
<path d="M127.224 141.471H132.592L130.487 151.92C129.204 152.91 127.716 153.675 126.024 154.204C124.333 154.733 122.578 155 120.766 155C118.225 155 116.015 154.539 114.13 153.622C112.244 152.706 110.788 151.412 109.756 149.741C108.729 148.07 108.216 146.148 108.216 143.975C108.216 141.094 108.881 138.496 110.212 136.176C111.542 133.855 113.417 132.033 115.837 130.718C118.257 129.403 121.038 128.743 124.181 128.743C126.601 128.743 128.696 129.12 130.476 129.869C132.252 130.618 133.687 131.718 134.777 133.169L130.571 136.579C129.722 135.589 128.769 134.866 127.706 134.421C126.642 133.976 125.385 133.751 123.935 133.751C122.002 133.751 120.294 134.18 118.817 135.039C117.34 135.898 116.198 137.077 115.392 138.574C114.58 140.072 114.177 141.754 114.177 143.618C114.177 145.577 114.81 147.133 116.083 148.28C117.351 149.427 119.173 150.003 121.541 150.003C123.039 150.003 124.443 149.699 125.747 149.097L127.234 141.481L127.224 141.471Z" fill="#FFC947"/>
<path d="M140.051 153.769C138.564 153.046 137.416 152.02 136.605 150.705C135.793 149.39 135.389 147.856 135.389 146.117C135.389 143.964 135.898 142.031 136.914 140.313C137.93 138.595 139.333 137.244 141.12 136.249C142.911 135.259 144.927 134.761 147.18 134.761C149.165 134.761 150.893 135.123 152.365 135.851C153.842 136.574 154.984 137.6 155.79 138.915C156.602 140.235 157.006 141.764 157.006 143.503C157.006 145.656 156.503 147.589 155.502 149.307C154.497 151.025 153.093 152.381 151.296 153.371C149.495 154.361 147.468 154.859 145.221 154.859C143.262 154.859 141.539 154.497 140.051 153.769ZM148.52 149.359C149.39 148.814 150.066 148.06 150.553 147.091C151.035 146.122 151.275 145.012 151.275 143.755C151.275 142.424 150.888 141.371 150.113 140.596C149.338 139.821 148.248 139.433 146.85 139.433C145.739 139.433 144.744 139.706 143.875 140.251C143.005 140.795 142.324 141.55 141.842 142.518C141.36 143.487 141.114 144.598 141.114 145.855C141.114 147.185 141.507 148.238 142.293 149.013C143.078 149.788 144.173 150.176 145.577 150.176C146.666 150.176 147.646 149.904 148.515 149.359H148.52Z" fill="#FFC947"/>
</svg>
