<svg width="20" height="14" viewBox="0 0 20 14" fill="none" xmlns="http://www.w3.org/2000/svg">
<g clip-path="url(#clip0_124_719)">
<path d="M18.8863 4.07172L10.4068 8.04872C10.1886 8.15032 9.93087 8.15118 9.71265 8.04958L1.11085 4.06397C0.601985 3.82806 0 4.16643 0 4.68821V11.4316C0 12.4778 1.48051 13.8201 2.62898 13.9303C2.65344 13.9329 2.67695 13.9337 2.70141 13.9337C7.55679 14.0224 12.4442 14.0224 17.2995 13.9337C17.323 13.9337 17.3475 13.9337 17.371 13.9303C18.5204 13.8192 20 12.4769 20 11.4316V4.69423C20 4.17074 19.3952 3.83236 18.8863 4.07172ZM5.99351 9.66914C5.4442 10.0256 5.09241 10.5827 5.03033 11.1966L4.93439 12.1385L4.33711 11.3662C3.94864 10.8634 3.33913 10.5413 2.66943 10.4845L1.63947 10.3976L2.48319 9.84995C3.0325 9.49436 3.38428 8.93642 3.44636 8.32338L3.5423 7.38058L4.13959 8.1529C4.52805 8.65573 5.13756 8.97775 5.80727 9.03458L6.83723 9.1224L5.99351 9.66914Z" fill="#6B0F1A"/>
<path d="M19.6031 2.85072C19.8608 2.72587 19.9849 2.45121 19.8994 2.19635C19.8542 2.06289 19.8072 1.93719 19.779 1.87347C19.3792 0.955636 18.4499 0.274578 17.3964 0.0765463C17.3588 0.0696583 17.3212 0.0662142 17.2835 0.0653532C12.4413 -0.0233306 7.56901 -0.0233306 2.7268 0.0653532C2.68917 0.0653532 2.65155 0.0696583 2.61487 0.0765463C1.3855 0.305575 0.385643 1.17261 0.0912346 2.2747C0.0253925 2.52267 0.155195 2.77925 0.401633 2.89721L9.74745 5.95207C9.92428 6.03645 10.135 6.03559 10.3118 5.95035L19.6031 2.85072Z" fill="#6B0F1A"/>
</g>
<defs>
<clipPath id="clip0_124_719">
<rect width="20" height="14" fill="white"/>
</clipPath>
</defs>
</svg>
