<svg width="15" height="20" viewBox="0 0 15 20" fill="none" xmlns="http://www.w3.org/2000/svg">
<path d="M3.82357 10.1471C4.45815 10.133 5.13489 10.866 5.72589 11.158C6.95428 11.7644 8.22976 11.7384 9.43144 11.0724C9.8573 10.8362 10.6296 10.1412 11.0759 10.1352C13.3647 10.1047 14.4336 12.2524 14.799 14.3323C15.2157 16.7043 15.2157 19.4204 12.4673 19.9449C9.27403 20.0544 6.06461 19.962 2.86574 19.9918C0.699188 19.7311 -0.0745293 18.2531 0.00558309 16.0666C0.0976421 13.5673 0.943039 10.2119 3.82357 10.1464V10.1471Z" fill="#6B0F1A"/>
<path d="M10.5551 4.38783L12.2768 5.06276L10.5551 5.7377C9.43493 6.17723 8.55158 7.11364 8.13697 8.30111L7.50028 10.1263L6.8636 8.30111C6.44898 7.11364 5.56564 6.17723 4.44547 5.7377L2.72375 5.06276L4.44547 4.38783C5.56564 3.9483 6.44898 3.01188 6.8636 1.82441L7.49958 0L8.13626 1.82516C8.55088 3.01263 9.43423 3.94904 10.5544 4.38857L10.5551 4.38783Z" fill="#6B0F1A"/>
</svg>
