<svg width="230" height="232" viewBox="0 0 230 232" fill="none" xmlns="http://www.w3.org/2000/svg">
<g clip-path="url(#clip0_263_973)">
<g opacity="0.4">
<path d="M173.553 42.1446C168.664 42.6239 164.6 38.5494 165.078 33.6476C165.433 30.0215 168.355 27.0836 171.972 26.7202C176.869 26.2254 180.949 30.3153 180.463 35.2326C180.101 38.8587 177.178 41.7967 173.561 42.1523L173.553 42.1446ZM185.584 19.468L183.263 22.2204C182.507 23.125 181.196 23.3106 180.209 22.6689C176.862 20.5272 172.589 19.7773 168.286 21.2385C166.96 21.687 165.741 22.3364 164.615 23.1328C163.481 23.9368 162.687 24.2538 162.88 22.5297C163.852 15.7337 169.196 10.7314 175.597 9.62577C177.209 9.34744 178.859 9.97369 179.916 11.2262L185.584 17.9526C185.946 18.3856 185.946 19.0273 185.584 19.4603V19.468ZM209.637 42.1446C206.02 41.7889 203.09 38.8587 202.735 35.2249C202.249 30.3153 206.329 26.2254 211.226 26.7125C214.843 27.0758 217.766 30.0138 218.12 33.6399C218.598 38.5417 214.527 42.6162 209.645 42.1369L209.637 42.1446ZM218.575 23.1328C217.449 22.3364 216.231 21.687 214.904 21.2385C210.601 19.785 206.329 20.535 202.982 22.6689C201.987 23.3028 200.684 23.1173 199.928 22.2204L197.607 19.468C197.244 19.0273 197.244 18.3933 197.607 17.9604L203.275 11.2339C204.331 9.97369 205.982 9.35517 207.594 9.6335C214.002 10.7391 219.339 15.7414 220.311 22.5374C220.503 24.2616 219.709 23.9523 218.575 23.1405V23.1328ZM182.206 1.84012C181.165 0.672662 179.676 1.91981e-05 178.119 1.91981e-05H178.096H178.072C159.009 -0.0231754 147.009 20.9757 156.687 37.4361C157.96 39.5932 159.703 41.7425 161.739 43.5595C163.775 45.3764 166.505 46.3969 169.273 46.3969H179.815C182.985 44.5259 185.43 41.4256 186.286 37.6835C186.725 35.8434 186.787 34.0419 186.525 32.341C186.424 31.6761 186.617 30.9957 187.049 30.4854L189.147 27.9959C190.419 26.4805 192.74 26.4882 194.013 27.9959L196.111 30.4854C196.542 30.9957 196.735 31.6761 196.635 32.341C196.38 34.0419 196.442 35.8434 196.874 37.6835C197.73 41.4256 200.175 44.5259 203.344 46.3969H213.887C216.655 46.3969 219.354 45.4073 221.421 43.5595C223.488 41.7116 225.2 39.5932 226.472 37.4361C236.182 20.9757 224.174 -0.0231754 205.118 1.91981e-05H205.072C203.514 1.91981e-05 202.026 0.672662 200.984 1.84012L193.967 9.67216C192.702 11.087 190.489 11.087 189.224 9.67216L182.206 1.84012Z" fill="#F5EFE6" fill-opacity="0.05"/>
<path d="M157.323 92.2449L159.976 93.2268L157.323 94.2087C155.596 94.8504 154.238 96.2112 153.598 97.9431L152.619 100.603L151.639 97.9431C150.999 96.2112 149.642 94.8504 147.915 94.2087L145.262 93.2268L147.915 92.2449C149.642 91.6032 150.999 90.2425 151.639 88.5106L152.619 85.851L153.598 88.5106C154.238 90.2425 155.596 91.6032 157.323 92.2449Z" fill="#F5EFE6" fill-opacity="0.05"/>
<path d="M80.6591 92.2449L83.312 93.2268L80.6591 94.2087C78.9316 94.8504 77.5743 96.2112 76.9342 97.9431L75.9548 100.603L74.9754 97.9431C74.3353 96.2112 72.978 94.8504 71.2506 94.2087L68.5977 93.2268L71.2506 92.2449C72.978 91.6032 74.3353 90.2425 74.9754 88.5106L75.9548 85.851L76.9342 88.5106C77.5743 90.2425 78.9316 91.6032 80.6591 92.2449Z" fill="#F5EFE6" fill-opacity="0.05"/>
<path d="M157.968 45.415L160.621 46.3969L157.968 47.3788C156.24 48.0206 154.883 49.3813 154.243 51.1132L153.263 53.7728L152.284 51.1132C151.644 49.3813 150.287 48.0206 148.559 47.3788L145.906 46.3969L148.559 45.415C150.287 44.7733 151.644 43.4126 152.284 41.6807L153.263 39.0211L154.243 41.6807C154.883 43.4126 156.24 44.7733 157.968 45.415Z" fill="#F5EFE6" fill-opacity="0.05"/>
<path d="M81.3031 45.415L83.956 46.3969L81.3031 47.3788C79.5757 48.0206 78.2184 49.3813 77.5783 51.1132L76.5989 53.7728L75.6195 51.1132C74.9794 49.3813 73.6221 48.0206 71.8946 47.3788L69.2417 46.3969L71.8946 45.415C73.6221 44.7733 74.9794 43.4126 75.6195 41.6807L76.5989 39.0211L77.5783 41.6807C78.2184 43.4126 79.5757 44.7733 81.3031 45.415Z" fill="#F5EFE6" fill-opacity="0.05"/>
<path d="M157.323 139.075L159.976 140.057L157.323 141.039C155.596 141.68 154.238 143.041 153.598 144.773L152.619 147.433L151.639 144.773C150.999 143.041 149.642 141.68 147.915 141.039L145.262 140.057L147.915 139.075C149.642 138.433 150.999 137.072 151.639 135.34L152.619 132.681L153.598 135.34C154.238 137.072 155.596 138.433 157.323 139.075Z" fill="#F5EFE6" fill-opacity="0.05"/>
<path d="M80.6591 139.075L83.312 140.057L80.6591 141.039C78.9316 141.68 77.5743 143.041 76.9342 144.773L75.9548 147.433L74.9754 144.773C74.3353 143.041 72.978 141.68 71.2506 141.039L68.5977 140.057L71.2506 139.075C72.978 138.433 74.3353 137.072 74.9754 135.34L75.9548 132.681L76.9342 135.34C77.5743 137.072 78.9316 138.433 80.6591 139.075Z" fill="#F5EFE6" fill-opacity="0.05"/>
<path d="M80.6591 185.046L83.312 186.028L80.6591 187.01C78.9316 187.652 77.5743 189.013 76.9342 190.745L75.9548 193.404L74.9754 190.745C74.3353 189.013 72.978 187.652 71.2506 187.01L68.5977 186.028L71.2506 185.046C72.978 184.405 74.3353 183.044 74.9754 181.312L75.9548 178.652L76.9342 181.312C77.5743 183.044 78.9316 184.405 80.6591 185.046Z" fill="#F5EFE6" fill-opacity="0.05"/>
<path d="M157.323 185.046L159.976 186.028L157.323 187.01C155.596 187.652 154.238 189.013 153.598 190.745L152.619 193.404L151.639 190.745C150.999 189.013 149.642 187.652 147.915 187.01L145.262 186.028L147.915 185.046C149.642 184.405 150.999 183.044 151.639 181.312L152.619 178.652L153.598 181.312C154.238 183.044 155.596 184.405 157.323 185.046Z" fill="#F5EFE6" fill-opacity="0.05"/>
</g>
<g opacity="0.4">
<path d="M20.29 227.748C15.4007 228.227 11.3365 224.152 11.8146 219.251C12.1694 215.625 15.0922 212.687 18.7091 212.323C23.6062 211.828 27.6858 215.918 27.1999 220.836C26.8374 224.462 23.9146 227.4 20.2977 227.755L20.29 227.748ZM32.3283 205.071L30.007 207.824C29.2513 208.728 27.9402 208.914 26.9531 208.272C23.6062 206.13 19.3338 205.38 15.0305 206.842C13.7041 207.29 12.4856 207.939 11.3596 208.736C10.226 209.54 9.43166 209.857 9.62446 208.133C10.5962 201.337 15.9405 196.334 22.3414 195.229C23.9532 194.951 25.6035 195.577 26.6601 196.829L32.3283 203.556C32.6908 203.989 32.6908 204.63 32.3283 205.063V205.071ZM56.3741 227.748C52.7572 227.392 49.8266 224.462 49.4719 220.828C48.986 215.918 53.0657 211.828 57.9627 212.316C61.5796 212.679 64.5024 215.617 64.8572 219.243C65.3353 224.145 61.2634 228.219 56.3818 227.74L56.3741 227.748ZM65.3122 208.736C64.1862 207.939 62.9677 207.29 61.6413 206.842C57.338 205.388 53.0656 206.138 49.7187 208.272C48.7238 208.906 47.4205 208.72 46.6648 207.824L44.3435 205.071C43.981 204.63 43.981 203.996 44.3435 203.563L50.0117 196.837C51.0683 195.577 52.7186 194.958 54.3304 195.237C60.739 196.342 66.0756 201.344 67.0473 208.141C67.2401 209.865 66.4458 209.555 65.3122 208.744V208.736ZM28.9428 187.435C27.9017 186.276 26.4133 185.603 24.8555 185.595H24.8323H24.8092C5.74537 185.572 -6.25436 206.571 3.42408 223.031C4.69655 225.189 6.43944 227.338 8.47539 229.155C10.5113 230.972 13.2413 231.992 16.0099 231.992H26.5521C29.7217 230.121 32.1664 227.021 33.0224 223.279C33.462 221.439 33.5237 219.637 33.2615 217.936C33.1612 217.271 33.354 216.591 33.7859 216.081L35.8835 213.591C37.156 212.076 39.4773 212.084 40.7497 213.591L42.8474 216.081C43.2792 216.591 43.472 217.271 43.3718 217.936C43.1173 219.637 43.179 221.439 43.6108 223.279C44.4669 227.021 46.9115 230.121 50.0811 231.992H60.6233C63.3919 231.992 66.0911 231.003 68.1579 229.155C70.2246 227.307 71.9367 225.189 73.2092 223.031C82.8953 206.571 70.8879 185.564 51.824 185.595H51.7778C50.22 185.595 48.7316 186.268 47.6904 187.435L40.6726 195.268C39.4079 196.682 37.1945 196.682 35.9298 195.268L28.9119 187.435H28.9428Z" fill="#F5EFE6" fill-opacity="0.05"/>
<path d="M27.2001 150.371C27.686 155.28 23.6064 159.37 18.7093 158.883C15.0924 158.52 12.1696 155.582 11.8148 151.955C11.3367 147.054 15.4086 142.979 20.2902 143.459C23.9071 143.814 26.8376 146.744 27.1924 150.378L27.2001 150.371ZM32.3285 167.643L26.6603 174.369C25.6037 175.629 23.9534 176.248 22.3416 175.97C15.933 174.864 10.5964 169.862 9.62467 163.066C9.43187 161.342 10.2262 161.651 11.3598 162.463C12.4858 163.259 13.7043 163.908 15.0307 164.357C19.334 165.81 23.6064 165.06 26.9533 162.927C27.9482 162.293 29.2515 162.478 30.0072 163.375L32.3285 166.127C32.691 166.568 32.691 167.202 32.3285 167.635V167.643ZM64.8496 151.948C64.4949 155.574 61.5721 158.512 57.9552 158.875C53.0581 159.37 48.9785 155.28 49.4644 150.363C49.8269 146.737 52.7497 143.799 56.3666 143.443C61.2559 142.964 65.3201 147.038 64.8419 151.94L64.8496 151.948ZM67.0475 163.073C66.0759 169.869 60.7315 174.872 54.3306 175.977C52.7188 176.256 51.0685 175.629 50.0119 174.377L44.3437 167.65C43.9812 167.218 43.9812 166.576 44.3437 166.143L46.665 163.39C47.4207 162.486 48.7318 162.3 49.7189 162.942C53.0659 165.084 57.3383 165.834 61.6415 164.372C62.9679 163.924 64.1864 163.274 65.3124 162.478C66.446 161.674 67.2403 161.357 67.0475 163.081V163.073ZM35.9608 175.931C37.2256 174.516 39.4389 174.516 40.7037 175.931L47.7215 183.763C48.7626 184.93 50.251 185.595 51.8088 185.603H51.8319H51.8551C70.9189 185.626 82.9187 164.627 73.2402 148.167C71.9678 146.01 70.2249 143.861 68.1889 142.044C66.1144 140.196 63.423 139.206 60.6544 139.206H50.1122C46.9426 141.077 44.4979 144.178 43.6419 147.92C43.2023 149.76 43.1406 151.561 43.4028 153.262C43.5031 153.927 43.3103 154.607 42.8784 155.118L40.7808 157.607C39.5083 159.123 37.187 159.123 35.9146 157.607L33.8169 155.118C33.3851 154.607 33.1923 153.927 33.2925 153.262C33.547 151.561 33.4853 149.76 33.0534 147.92C32.1974 144.178 29.7528 141.077 26.5832 139.206H16.041C13.2724 139.206 10.5732 140.196 8.50644 142.044C6.43965 143.891 4.7276 146.01 3.45514 148.167C-6.23102 164.627 5.77642 185.634 24.8403 185.603H24.8865C26.4443 185.603 27.9327 184.93 28.9738 183.763L35.9917 175.931H35.9608Z" fill="#F5EFE6" fill-opacity="0.05"/>
<path d="M20.29 134.946C15.4007 135.425 11.3365 131.351 11.8146 126.449C12.1694 122.823 15.0922 119.885 18.7091 119.522C23.6062 119.027 27.6858 123.117 27.1999 128.034C26.8374 131.66 23.9146 134.598 20.2977 134.954L20.29 134.946ZM32.3283 112.27L30.007 115.022C29.2513 115.927 27.9402 116.112 26.9531 115.47C23.6062 113.329 19.3338 112.579 15.0305 114.04C13.7041 114.488 12.4856 115.138 11.3596 115.934C10.226 116.738 9.43166 117.055 9.62446 115.331C10.5962 108.535 15.9405 103.533 22.3414 102.427C23.9532 102.149 25.6035 102.775 26.6601 104.028L32.3283 110.754C32.6908 111.187 32.6908 111.829 32.3283 112.262V112.27ZM56.3741 134.946C52.7572 134.59 49.8266 131.66 49.4719 128.026C48.986 123.117 53.0657 119.027 57.9627 119.514C61.5796 119.877 64.5024 122.815 64.8572 126.441C65.3353 131.343 61.2634 135.418 56.3818 134.938L56.3741 134.946ZM65.3122 115.934C64.1862 115.138 62.9677 114.488 61.6413 114.04C57.338 112.587 53.0656 113.336 49.7187 115.47C48.7238 116.104 47.4205 115.919 46.6648 115.022L44.3435 112.27C43.981 111.829 43.981 111.195 44.3435 110.762L50.0117 104.035C51.0683 102.775 52.7186 102.157 54.3304 102.435C60.739 103.541 66.0756 108.543 67.0473 115.339C67.2401 117.063 66.4458 116.754 65.3122 115.942V115.934ZM28.9428 94.6417C27.9017 93.4819 26.4133 92.8093 24.8555 92.8015H24.8323H24.8092C5.74537 92.7784 -6.25436 113.777 3.42408 130.238C4.69655 132.395 6.43944 134.544 8.47539 136.361C10.5113 138.178 13.2413 139.198 16.0099 139.198H26.5521C29.7217 137.327 32.1664 134.227 33.0224 130.485C33.462 128.645 33.5237 126.843 33.2615 125.143C33.1612 124.478 33.354 123.797 33.7859 123.287L35.8835 120.797C37.156 119.282 39.4773 119.29 40.7497 120.797L42.8474 123.287C43.2792 123.797 43.472 124.478 43.3718 125.143C43.1173 126.843 43.179 128.645 43.6108 130.485C44.4669 134.227 46.9115 137.327 50.0811 139.198H60.6233C63.3919 139.198 66.0911 138.209 68.1579 136.361C70.2246 134.513 71.9367 132.395 73.2092 130.238C82.8953 113.777 70.8879 92.7706 51.824 92.8015H51.7778C50.22 92.8015 48.7316 93.4742 47.6904 94.6417L40.6726 102.474C39.4079 103.889 37.1945 103.889 35.9298 102.474L28.9119 94.6417H28.9428Z" fill="#F5EFE6" fill-opacity="0.05"/>
<path d="M27.2001 57.569C27.686 62.4785 23.6064 66.5685 18.7093 66.0814C15.0924 65.718 12.1696 62.78 11.8148 59.154C11.3367 54.2522 15.4086 50.1776 20.2902 50.657C23.9071 51.0127 26.8376 53.9429 27.1924 57.5767L27.2001 57.569ZM32.3285 74.8412L26.6603 81.5677C25.6037 82.8279 23.9534 83.4464 22.3416 83.1681C15.933 82.0625 10.5964 77.0602 9.62467 70.2642C9.43187 68.54 10.2262 68.8493 11.3598 69.6611C12.4858 70.4574 13.7043 71.1069 15.0307 71.5553C19.334 73.0089 23.6064 72.2589 26.9533 70.125C27.9482 69.491 29.2515 69.6766 30.0072 70.5734L32.3285 73.3258C32.691 73.7665 32.691 74.4005 32.3285 74.8335V74.8412ZM64.8496 59.1462C64.4949 62.7723 61.5721 65.7103 57.9552 66.0737C53.0581 66.5685 48.9785 62.4785 49.4644 57.5613C49.8269 53.9352 52.7497 50.9972 56.3666 50.6415C61.2559 50.1622 65.3201 54.2367 64.8419 59.1385L64.8496 59.1462ZM67.0475 70.2719C66.0759 77.0679 60.7315 82.0702 54.3306 83.1758C52.7188 83.4542 51.0685 82.8279 50.0119 81.5754L44.3437 74.849C43.9812 74.416 43.9812 73.7743 44.3437 73.3413L46.665 70.5889C47.4207 69.6843 48.7318 69.4987 49.7189 70.1405C53.0659 72.2821 57.3383 73.032 61.6415 71.5708C62.9679 71.1224 64.1864 70.4729 65.3124 69.6766C66.446 68.8725 67.2403 68.5555 67.0475 70.2796V70.2719ZM35.9608 83.1294C37.2256 81.7146 39.4389 81.7146 40.7037 83.1294L47.7215 90.9615C48.7626 92.1289 50.251 92.7938 51.8088 92.8016H51.8319H51.8551C70.9189 92.8248 82.9187 71.8259 73.2402 55.3655C71.9678 53.2084 70.2249 51.059 68.1889 49.2421C66.1144 47.3943 63.423 46.4047 60.6544 46.4047H50.1122C46.9426 48.2757 44.4979 51.376 43.6419 55.1181C43.2023 56.9582 43.1406 58.7596 43.4028 60.4606C43.5031 61.1255 43.3103 61.8059 42.8784 62.3161L40.7808 64.8057C39.5083 66.3211 37.187 66.3211 35.9146 64.8057L33.8169 62.3161C33.3851 61.8059 33.1923 61.1255 33.2925 60.4606C33.547 58.7596 33.4853 56.9582 33.0534 55.1181C32.1974 51.376 29.7528 48.2757 26.5832 46.4047H16.041C13.2724 46.4047 10.5732 47.3943 8.50644 49.2421C6.43965 51.09 4.7276 53.2084 3.45514 55.3655C-6.23102 71.8259 5.77642 92.8325 24.8403 92.8016H24.8865C26.4443 92.8016 27.9327 92.1289 28.9738 90.9615L35.9917 83.1294H35.9608Z" fill="#F5EFE6" fill-opacity="0.05"/>
<path d="M20.2899 42.1446C15.4005 42.6239 11.3363 38.5494 11.8145 33.6476C12.1692 30.0215 15.092 27.0836 18.7089 26.7202C23.606 26.2254 27.6856 30.3153 27.1997 35.2326C26.8373 38.8587 23.9145 41.7967 20.2976 42.1523L20.2899 42.1446ZM32.3282 19.468L30.0069 22.2204C29.2511 23.125 27.9401 23.3106 26.953 22.6689C23.606 20.5272 19.3336 19.7773 15.0303 21.2385C13.7039 21.687 12.4854 22.3364 11.3595 23.1328C10.2258 23.9368 9.43149 24.2538 9.62429 22.5297C10.596 15.7337 15.9403 10.7314 22.3412 9.62577C23.953 9.34744 25.6034 9.97369 26.6599 11.2262L32.3282 17.9526C32.6906 18.3856 32.6906 19.0273 32.3282 19.4603V19.468ZM56.3739 42.1446C52.757 41.7889 49.8265 38.8587 49.4717 35.2249C48.9859 30.3153 53.0655 26.2254 57.9625 26.7125C61.5794 27.0758 64.5022 30.0138 64.857 33.6399C65.3351 38.5417 61.2632 42.6162 56.3816 42.1369L56.3739 42.1446ZM65.312 23.1328C64.1861 22.3364 62.9676 21.687 61.6411 21.2385C57.3379 19.785 53.0655 20.535 49.7185 22.6689C48.7237 23.3028 47.4204 23.1173 46.6646 22.2204L44.3433 19.468C43.9809 19.0273 43.9809 18.3933 44.3433 17.9604L50.0116 11.2339C51.0681 9.97369 52.7184 9.35517 54.3302 9.6335C60.7388 10.7391 66.0755 15.7414 67.0472 22.5374C67.24 24.2616 66.4456 23.9523 65.312 23.1405V23.1328ZM28.9426 1.84012C27.9015 0.672662 26.4208 1.91981e-05 24.863 1.91981e-05H24.8399H24.8168C5.75291 -0.0231754 -6.25453 20.9757 3.42391 37.4361C4.69638 39.5932 6.43927 41.7425 8.47522 43.5595C10.5112 45.3764 13.2412 46.3969 16.0098 46.3969H26.5519C29.7215 44.5259 32.1662 41.4256 33.0222 37.6835C33.4618 35.8434 33.5235 34.0419 33.2613 32.341C33.161 31.6761 33.3538 30.9957 33.7857 30.4854L35.8833 27.9959C37.1558 26.4805 39.4771 26.4882 40.7496 27.9959L42.8472 30.4854C43.2791 30.9957 43.4719 31.6761 43.3716 32.341C43.1171 34.0419 43.1788 35.8434 43.6107 37.6835C44.4667 41.4256 46.9114 44.5259 50.081 46.3969H60.6232C63.3917 46.3969 66.0909 45.4073 68.1577 43.5595C70.2245 41.7116 71.9365 39.5932 73.209 37.4361C82.926 20.9757 70.9185 -0.0231754 51.8547 1.91981e-05H51.8084C50.2506 1.91981e-05 48.7622 0.672662 47.7211 1.84012L40.7033 9.67216C39.4385 11.087 37.2252 11.087 35.9605 9.67216L28.9426 1.84012Z" fill="#F5EFE6" fill-opacity="0.05"/>
<path d="M96.9542 227.748C92.0648 228.227 88.0007 224.152 88.4788 219.251C88.8336 215.625 91.7564 212.687 95.3733 212.323C100.27 211.828 104.35 215.918 103.864 220.836C103.502 224.462 100.579 227.4 96.9619 227.755L96.9542 227.748ZM108.992 205.071L106.671 207.824C105.915 208.728 104.604 208.914 103.617 208.272C100.27 206.13 95.9979 205.38 91.6947 206.842C90.3682 207.29 89.1497 207.939 88.0238 208.736C86.8902 209.54 86.0958 209.857 86.2886 208.133C87.2603 201.337 92.6047 196.334 99.0056 195.229C100.617 194.951 102.268 195.577 103.324 196.829L108.992 203.556C109.355 203.989 109.355 204.63 108.992 205.063V205.071ZM133.038 227.748C129.421 227.392 126.491 224.462 126.136 220.828C125.65 215.918 129.73 211.828 134.627 212.316C138.244 212.679 141.167 215.617 141.521 219.243C141.999 224.145 137.928 228.219 133.046 227.74L133.038 227.748ZM141.984 208.736C140.858 207.939 139.64 207.29 138.313 206.842C134.01 205.388 129.738 206.138 126.391 208.272C125.396 208.906 124.092 208.72 123.337 207.824L121.015 205.071C120.653 204.63 120.653 203.996 121.015 203.563L126.684 196.837C127.74 195.577 129.39 194.958 131.002 195.237C137.411 196.342 142.748 201.344 143.719 208.141C143.912 209.865 143.118 209.555 141.984 208.744V208.736ZM105.615 187.435C104.574 186.276 103.085 185.603 101.527 185.595H101.504H101.481C82.4172 185.572 70.4175 206.571 80.096 223.031C81.3684 225.189 83.1113 227.338 85.1473 229.155C87.1832 230.972 89.9132 231.992 92.6818 231.992H103.224C106.394 230.121 108.838 227.021 109.694 223.279C110.134 221.439 110.196 219.637 109.933 217.936C109.833 217.271 110.026 216.591 110.458 216.081L112.555 213.591C113.828 212.076 116.149 212.084 117.422 213.591L119.519 216.081C119.951 216.591 120.144 217.271 120.044 217.936C119.789 219.637 119.851 221.439 120.283 223.279C121.139 227.021 123.583 230.121 126.753 231.992H137.295C140.064 231.992 142.763 231.003 144.83 229.155C146.897 227.307 148.609 225.189 149.881 223.031C159.567 206.571 147.56 185.564 128.496 185.595H128.45C126.892 185.595 125.403 186.268 124.362 187.435L117.344 195.268C116.08 196.682 113.866 196.682 112.602 195.268L105.584 187.435H105.615Z" fill="#F5EFE6" fill-opacity="0.05"/>
<path d="M103.864 150.371C104.35 155.28 100.271 159.37 95.3735 158.883C91.7566 158.52 88.8338 155.582 88.479 151.955C88.0009 147.054 92.0728 142.979 96.9544 143.459C100.571 143.814 103.502 146.744 103.857 150.378L103.864 150.371ZM108.993 167.643L103.324 174.369C102.268 175.629 100.618 176.248 99.0058 175.97C92.5972 174.864 87.2605 169.862 86.2888 163.066C86.096 161.342 86.8904 161.651 88.024 162.463C89.1499 163.259 90.3684 163.908 91.6949 164.357C95.9981 165.81 100.271 165.06 103.617 162.927C104.612 162.293 105.916 162.478 106.671 163.375L108.993 166.127C109.355 166.568 109.355 167.202 108.993 167.635V167.643ZM141.522 151.948C141.167 155.574 138.244 158.512 134.627 158.875C129.73 159.37 125.65 155.28 126.136 150.363C126.499 146.737 129.422 143.799 133.038 143.443C137.928 142.964 141.992 147.038 141.514 151.94L141.522 151.948ZM143.712 163.073C142.74 169.869 137.396 174.872 130.995 175.977C129.383 176.256 127.733 175.629 126.676 174.377L121.008 167.65C120.645 167.218 120.645 166.576 121.008 166.143L123.329 163.39C124.085 162.486 125.396 162.3 126.383 162.942C129.73 165.084 134.002 165.834 138.306 164.372C139.632 163.924 140.851 163.274 141.977 162.478C143.11 161.674 143.905 161.357 143.712 163.081V163.073ZM112.633 175.931C113.897 174.516 116.111 174.516 117.376 175.931L124.393 183.763C125.434 184.93 126.923 185.595 128.481 185.603H128.504H128.527C147.591 185.626 159.591 164.627 149.912 148.167C148.64 146.01 146.897 143.861 144.861 142.044C142.786 140.196 140.095 139.206 137.326 139.206H126.784C123.614 141.077 121.17 144.178 120.314 147.92C119.874 149.76 119.812 151.561 120.075 153.262C120.175 153.927 119.982 154.607 119.55 155.118L117.453 157.607C116.18 159.123 113.859 159.123 112.586 157.607L110.489 155.118C110.057 154.607 109.864 153.927 109.964 153.262C110.219 151.561 110.157 149.76 109.725 147.92C108.869 144.178 106.425 141.077 103.255 139.206H92.7129C89.9443 139.206 87.2451 140.196 85.1783 142.044C83.1115 143.891 81.3995 146.01 80.127 148.167C70.4409 164.627 82.4483 185.634 101.512 185.603H101.558C103.116 185.603 104.605 184.93 105.646 183.763L112.664 175.931H112.633Z" fill="#F5EFE6" fill-opacity="0.05"/>
<path d="M96.9542 134.946C92.0648 135.425 88.0007 131.351 88.4788 126.449C88.8336 122.823 91.7564 119.885 95.3733 119.522C100.27 119.027 104.35 123.117 103.864 128.034C103.502 131.66 100.579 134.598 96.9619 134.954L96.9542 134.946ZM108.992 112.27L106.671 115.022C105.915 115.927 104.604 116.112 103.617 115.47C100.27 113.329 95.9979 112.579 91.6947 114.04C90.3682 114.488 89.1497 115.138 88.0238 115.934C86.8902 116.738 86.0958 117.055 86.2886 115.331C87.2603 108.535 92.6047 103.533 99.0056 102.427C100.617 102.149 102.268 102.775 103.324 104.028L108.992 110.754C109.355 111.187 109.355 111.829 108.992 112.262V112.27ZM133.038 134.946C129.421 134.59 126.491 131.66 126.136 128.026C125.65 123.117 129.73 119.027 134.627 119.514C138.244 119.877 141.167 122.815 141.521 126.441C141.999 131.343 137.928 135.418 133.046 134.938L133.038 134.946ZM141.984 115.934C140.858 115.138 139.64 114.488 138.313 114.04C134.01 112.587 129.738 113.336 126.391 115.47C125.396 116.104 124.092 115.919 123.337 115.022L121.015 112.27C120.653 111.829 120.653 111.195 121.015 110.762L126.684 104.035C127.74 102.775 129.39 102.157 131.002 102.435C137.411 103.541 142.748 108.543 143.719 115.339C143.912 117.063 143.118 116.754 141.984 115.942V115.934ZM105.615 94.6417C104.574 93.4819 103.085 92.8093 101.527 92.8015H101.504H101.481C82.4172 92.7784 70.4175 113.777 80.096 130.238C81.3684 132.395 83.1113 134.544 85.1473 136.361C87.1832 138.178 89.9132 139.198 92.6818 139.198H103.224C106.394 137.327 108.838 134.227 109.694 130.485C110.134 128.645 110.196 126.843 109.933 125.143C109.833 124.478 110.026 123.797 110.458 123.287L112.555 120.797C113.828 119.282 116.149 119.29 117.422 120.797L119.519 123.287C119.951 123.797 120.144 124.478 120.044 125.143C119.789 126.843 119.851 128.645 120.283 130.485C121.139 134.227 123.583 137.327 126.753 139.198H137.295C140.064 139.198 142.763 138.209 144.83 136.361C146.897 134.513 148.609 132.395 149.881 130.238C159.567 113.777 147.56 92.7706 128.496 92.8015H128.45C126.892 92.8015 125.403 93.4742 124.362 94.6417L117.344 102.474C116.08 103.889 113.866 103.889 112.602 102.474L105.584 94.6417H105.615Z" fill="#F5EFE6" fill-opacity="0.05"/>
<path d="M103.864 57.569C104.35 62.4785 100.271 66.5685 95.3735 66.0814C91.7566 65.718 88.8338 62.78 88.479 59.154C88.0009 54.2522 92.0728 50.1776 96.9544 50.657C100.571 51.0127 103.502 53.9429 103.857 57.5767L103.864 57.569ZM108.993 74.8412L103.324 81.5677C102.268 82.8279 100.618 83.4464 99.0058 83.1681C92.5972 82.0625 87.2605 77.0602 86.2888 70.2642C86.096 68.54 86.8904 68.8493 88.024 69.6611C89.1499 70.4574 90.3684 71.1069 91.6949 71.5553C95.9981 73.0089 100.271 72.2589 103.617 70.125C104.612 69.491 105.916 69.6766 106.671 70.5734L108.993 73.3258C109.355 73.7665 109.355 74.4005 108.993 74.8335V74.8412ZM141.522 59.1462C141.167 62.7723 138.244 65.7103 134.627 66.0737C129.73 66.5685 125.65 62.4785 126.136 57.5613C126.499 53.9352 129.422 50.9972 133.038 50.6415C137.928 50.1622 141.992 54.2367 141.514 59.1385L141.522 59.1462ZM143.712 70.2719C142.74 77.0679 137.396 82.0702 130.995 83.1758C129.383 83.4542 127.733 82.8279 126.676 81.5754L121.008 74.849C120.645 74.416 120.645 73.7743 121.008 73.3413L123.329 70.5889C124.085 69.6843 125.396 69.4987 126.383 70.1405C129.73 72.2821 134.002 73.032 138.306 71.5708C139.632 71.1224 140.851 70.4729 141.977 69.6766C143.11 68.8725 143.905 68.5555 143.712 70.2796V70.2719ZM112.633 83.1294C113.897 81.7146 116.111 81.7146 117.376 83.1294L124.393 90.9615C125.434 92.1289 126.923 92.7938 128.481 92.8016H128.504H128.527C147.591 92.8248 159.591 71.8259 149.912 55.3655C148.64 53.2084 146.897 51.059 144.861 49.2421C142.786 47.3943 140.095 46.4047 137.326 46.4047H126.784C123.614 48.2757 121.17 51.376 120.314 55.1181C119.874 56.9582 119.812 58.7596 120.075 60.4606C120.175 61.1255 119.982 61.8059 119.55 62.3161L117.453 64.8057C116.18 66.3211 113.859 66.3211 112.586 64.8057L110.489 62.3161C110.057 61.8059 109.864 61.1255 109.964 60.4606C110.219 58.7596 110.157 56.9582 109.725 55.1181C108.869 51.376 106.425 48.2757 103.255 46.4047H92.7129C89.9443 46.4047 87.2451 47.3943 85.1783 49.2421C83.1115 51.09 81.3995 53.2084 80.127 55.3655C70.4409 71.8259 82.4483 92.8325 101.512 92.8016H101.558C103.116 92.8016 104.605 92.1289 105.646 90.9615L112.664 83.1294H112.633Z" fill="#F5EFE6" fill-opacity="0.05"/>
<path d="M96.9542 42.1446C92.0648 42.6239 88.0007 38.5494 88.4788 33.6476C88.8336 30.0215 91.7564 27.0836 95.3732 26.7202C100.27 26.2254 104.35 30.3153 103.864 35.2326C103.502 38.8587 100.579 41.7967 96.9619 42.1523L96.9542 42.1446ZM108.992 19.468L106.671 22.2204C105.915 23.125 104.604 23.3106 103.617 22.6689C100.27 20.5272 95.9979 19.7773 91.6947 21.2385C90.3682 21.687 89.1497 22.3364 88.0238 23.1328C86.8902 23.9368 86.0958 24.2538 86.2886 22.5297C87.2603 15.7337 92.6047 10.7314 99.0056 9.62577C100.617 9.34744 102.268 9.97369 103.324 11.2262L108.992 17.9526C109.355 18.3856 109.355 19.0273 108.992 19.4603V19.468ZM133.038 42.1446C129.421 41.7889 126.491 38.8587 126.136 35.2249C125.65 30.3153 129.73 26.2254 134.627 26.7125C138.244 27.0758 141.167 30.0138 141.521 33.6399C141.999 38.5417 137.928 42.6162 133.046 42.1369L133.038 42.1446ZM141.984 23.1328C140.858 22.3364 139.64 21.687 138.313 21.2385C134.01 19.785 129.738 20.535 126.391 22.6689C125.396 23.3028 124.092 23.1173 123.337 22.2204L121.015 19.468C120.653 19.0273 120.653 18.3933 121.015 17.9604L126.684 11.2339C127.74 9.97369 129.39 9.35517 131.002 9.6335C137.411 10.7391 142.748 15.7414 143.719 22.5374C143.912 24.2616 143.118 23.9523 141.984 23.1405V23.1328ZM105.615 1.84012C104.574 0.672662 103.085 1.91981e-05 101.527 1.91981e-05H101.504H101.481C82.4172 -0.0231754 70.4175 20.9757 80.096 37.4361C81.3684 39.5932 83.1113 41.7425 85.1473 43.5595C87.1832 45.3764 89.9132 46.3969 92.6818 46.3969H103.224C106.394 44.5259 108.838 41.4256 109.694 37.6835C110.134 35.8434 110.196 34.0419 109.933 32.341C109.833 31.6761 110.026 30.9957 110.458 30.4854L112.555 27.9959C113.828 26.4805 116.149 26.4882 117.422 27.9959L119.519 30.4854C119.951 30.9957 120.144 31.6761 120.044 32.341C119.789 34.0419 119.851 35.8434 120.283 37.6835C121.139 41.4256 123.583 44.5259 126.753 46.3969H137.295C140.064 46.3969 142.763 45.4073 144.83 43.5595C146.897 41.7116 148.609 39.5932 149.881 37.4361C159.59 20.9757 147.583 -0.0231754 128.519 1.91981e-05H128.473C126.915 1.91981e-05 125.427 0.672662 124.385 1.84012L117.368 9.67216C116.103 11.087 113.89 11.087 112.625 9.67216L105.607 1.84012H105.615Z" fill="#F5EFE6" fill-opacity="0.05"/>
<path d="M173.626 227.748C168.737 228.227 164.672 224.152 165.151 219.251C165.505 215.625 168.428 212.687 172.045 212.323C176.942 211.828 181.022 215.918 180.536 220.836C180.173 224.462 177.251 227.4 173.634 227.755L173.626 227.748ZM185.657 205.071L183.335 207.824C182.579 208.728 181.268 208.914 180.281 208.272C176.934 206.13 172.662 205.38 168.359 206.842C167.032 207.29 165.814 207.939 164.688 208.736C163.554 209.54 162.76 209.857 162.953 208.133C163.924 201.337 169.269 196.334 175.67 195.229C177.281 194.951 178.932 195.577 179.988 196.829L185.657 203.556C186.019 203.989 186.019 204.63 185.657 205.063V205.071ZM209.71 227.748C206.093 227.392 203.163 224.462 202.808 220.828C202.322 215.918 206.402 211.828 211.299 212.316C214.916 212.679 217.838 215.617 218.193 219.243C218.671 224.145 214.599 228.219 209.718 227.74L209.71 227.748ZM218.648 208.736C217.522 207.939 216.304 207.29 214.977 206.842C210.674 205.388 206.402 206.138 203.055 208.272C202.06 208.906 200.756 208.72 200.001 207.824L197.679 205.071C197.317 204.63 197.317 203.996 197.679 203.563L203.348 196.837C204.404 195.577 206.055 194.958 207.666 195.237C214.075 196.342 219.412 201.344 220.383 208.141C220.576 209.865 219.782 209.555 218.648 208.744V208.736ZM182.279 187.435C181.238 186.276 179.749 185.603 178.191 185.595H178.168H178.145C159.081 185.572 147.082 206.571 156.76 223.031C158.032 225.189 159.775 227.338 161.811 229.155C163.847 230.972 166.577 231.992 169.346 231.992H179.888C183.058 230.121 185.502 227.021 186.358 223.279C186.798 221.439 186.86 219.637 186.597 217.936C186.497 217.271 186.69 216.591 187.122 216.081L189.219 213.591C190.492 212.076 192.813 212.084 194.086 213.591L196.183 216.081C196.615 216.591 196.808 217.271 196.708 217.936C196.453 219.637 196.515 221.439 196.947 223.279C197.803 227.021 200.247 230.121 203.417 231.992H213.959C216.728 231.992 219.427 231.003 221.494 229.155C223.561 227.307 225.273 225.189 226.545 223.031C236.231 206.571 224.224 185.564 205.16 185.595H205.114C203.556 185.595 202.068 186.268 201.026 187.435L194.009 195.268C192.744 196.682 190.53 196.682 189.266 195.268L182.248 187.435H182.279Z" fill="#F5EFE6" fill-opacity="0.05"/>
<path d="M180.528 150.371C181.014 155.28 176.935 159.37 172.038 158.883C168.421 158.52 165.498 155.582 165.143 151.955C164.665 147.054 168.737 142.979 173.618 143.459C177.235 143.814 180.166 146.744 180.521 150.378L180.528 150.371ZM185.657 167.643L179.989 174.369C178.932 175.629 177.282 176.248 175.67 175.97C169.261 174.864 163.925 169.862 162.953 163.066C162.76 161.342 163.554 161.651 164.688 162.463C165.814 163.259 167.032 163.908 168.359 164.357C172.662 165.81 176.935 165.06 180.282 162.927C181.276 162.293 182.58 162.478 183.335 163.375L185.657 166.127C186.019 166.568 186.019 167.202 185.657 167.635V167.643ZM218.186 151.948C217.831 155.574 214.908 158.512 211.291 158.875C206.394 159.37 202.314 155.28 202.8 150.363C203.163 146.737 206.086 143.799 209.703 143.443C214.592 142.964 218.656 147.038 218.178 151.94L218.186 151.948ZM220.383 163.073C219.412 169.869 214.067 174.872 207.667 175.977C206.055 176.256 204.404 175.629 203.348 174.377L197.68 167.65C197.317 167.218 197.317 166.576 197.68 166.143L200.001 163.39C200.757 162.486 202.068 162.3 203.055 162.942C206.402 165.084 210.674 165.834 214.977 164.372C216.304 163.924 217.522 163.274 218.648 162.478C219.782 161.674 220.576 161.357 220.383 163.081V163.073ZM189.297 175.931C190.562 174.516 192.775 174.516 194.04 175.931L201.057 183.763C202.099 184.93 203.587 185.595 205.145 185.603H205.168H205.191C224.255 185.626 236.255 164.627 226.576 148.167C225.304 146.01 223.561 143.861 221.525 142.044C219.45 140.196 216.759 139.206 213.99 139.206H203.448C200.279 141.077 197.834 144.178 196.978 147.92C196.538 149.76 196.477 151.561 196.739 153.262C196.839 153.927 196.646 154.607 196.214 155.118L194.117 157.607C192.844 159.123 190.523 159.123 189.251 157.607L187.153 155.118C186.721 154.607 186.528 153.927 186.628 153.262C186.883 151.561 186.821 149.76 186.389 147.92C185.533 144.178 183.089 141.077 179.919 139.206H169.377C166.608 139.206 163.909 140.196 161.842 142.044C159.776 143.891 158.064 146.01 156.791 148.167C147.105 164.627 159.112 185.634 178.176 185.603H178.222C179.78 185.603 181.269 184.93 182.31 183.763L189.328 175.931H189.297Z" fill="#F5EFE6" fill-opacity="0.05"/>
<path d="M173.626 134.946C168.737 135.425 164.672 131.351 165.151 126.449C165.505 122.823 168.428 119.885 172.045 119.522C176.942 119.027 181.022 123.117 180.536 128.034C180.173 131.66 177.251 134.598 173.634 134.954L173.626 134.946ZM185.657 112.27L183.335 115.022C182.579 115.927 181.268 116.112 180.281 115.47C176.934 113.329 172.662 112.579 168.359 114.04C167.032 114.488 165.814 115.138 164.688 115.934C163.554 116.738 162.76 117.055 162.953 115.331C163.924 108.535 169.269 103.533 175.67 102.427C177.281 102.149 178.932 102.775 179.988 104.028L185.657 110.754C186.019 111.187 186.019 111.829 185.657 112.262V112.27ZM209.71 134.946C206.093 134.59 203.163 131.66 202.808 128.026C202.322 123.117 206.402 119.027 211.299 119.514C214.916 119.877 217.838 122.815 218.193 126.441C218.671 131.343 214.599 135.418 209.718 134.938L209.71 134.946ZM218.648 115.934C217.522 115.138 216.304 114.488 214.977 114.04C210.674 112.587 206.402 113.336 203.055 115.47C202.06 116.104 200.756 115.919 200.001 115.022L197.679 112.27C197.317 111.829 197.317 111.195 197.679 110.762L203.348 104.035C204.404 102.775 206.055 102.157 207.666 102.435C214.075 103.541 219.412 108.543 220.383 115.339C220.576 117.063 219.782 116.754 218.648 115.942V115.934ZM182.279 94.6417C181.238 93.4819 179.749 92.8093 178.191 92.8015H178.168H178.145C159.081 92.7784 147.082 113.777 156.76 130.238C158.032 132.395 159.775 134.544 161.811 136.361C163.847 138.178 166.577 139.198 169.346 139.198H179.888C183.058 137.327 185.502 134.227 186.358 130.485C186.798 128.645 186.86 126.843 186.597 125.143C186.497 124.478 186.69 123.797 187.122 123.287L189.219 120.797C190.492 119.282 192.813 119.29 194.086 120.797L196.183 123.287C196.615 123.797 196.808 124.478 196.708 125.143C196.453 126.843 196.515 128.645 196.947 130.485C197.803 134.227 200.247 137.327 203.417 139.198H213.959C216.728 139.198 219.427 138.209 221.494 136.361C223.561 134.513 225.273 132.395 226.545 130.238C236.231 113.777 224.224 92.7706 205.16 92.8015H205.114C203.556 92.8015 202.068 93.4742 201.026 94.6417L194.009 102.474C192.744 103.889 190.53 103.889 189.266 102.474L182.248 94.6417H182.279Z" fill="#F5EFE6" fill-opacity="0.05"/>
<path d="M180.528 57.569C181.014 62.4785 176.935 66.5685 172.038 66.0814C168.421 65.718 165.498 62.78 165.143 59.154C164.665 54.2522 168.737 50.1776 173.618 50.657C177.235 51.0127 180.166 53.9429 180.521 57.5767L180.528 57.569ZM185.657 74.8412L179.989 81.5677C178.932 82.8279 177.282 83.4464 175.67 83.1681C169.261 82.0625 163.925 77.0602 162.953 70.2642C162.76 68.54 163.554 68.8493 164.688 69.6611C165.814 70.4574 167.032 71.1069 168.359 71.5553C172.662 73.0089 176.935 72.2589 180.282 70.125C181.276 69.491 182.58 69.6766 183.335 70.5734L185.657 73.3258C186.019 73.7665 186.019 74.4005 185.657 74.8335V74.8412ZM218.186 59.1462C217.831 62.7723 214.908 65.7103 211.291 66.0737C206.394 66.5685 202.314 62.4785 202.8 57.5613C203.163 53.9352 206.086 50.9972 209.703 50.6415C214.592 50.1622 218.656 54.2367 218.178 59.1385L218.186 59.1462ZM220.383 70.2719C219.412 77.0679 214.067 82.0702 207.667 83.1758C206.055 83.4542 204.404 82.8279 203.348 81.5754L197.68 74.849C197.317 74.416 197.317 73.7743 197.68 73.3413L200.001 70.5889C200.757 69.6843 202.068 69.4987 203.055 70.1405C206.402 72.2821 210.674 73.032 214.977 71.5708C216.304 71.1224 217.522 70.4729 218.648 69.6766C219.782 68.8725 220.576 68.5555 220.383 70.2796V70.2719ZM189.297 83.1294C190.562 81.7146 192.775 81.7146 194.04 83.1294L201.057 90.9615C202.099 92.1289 203.587 92.7938 205.145 92.8016H205.168H205.191C224.255 92.8248 236.255 71.8259 226.576 55.3655C225.304 53.2084 223.561 51.059 221.525 49.2421C219.45 47.3943 216.759 46.4047 213.99 46.4047H203.448C200.279 48.2757 197.834 51.376 196.978 55.1181C196.538 56.9582 196.477 58.7596 196.739 60.4606C196.839 61.1255 196.646 61.8059 196.214 62.3161L194.117 64.8057C192.844 66.3211 190.523 66.3211 189.251 64.8057L187.153 62.3161C186.721 61.8059 186.528 61.1255 186.628 60.4606C186.883 58.7596 186.821 56.9582 186.389 55.1181C185.533 51.376 183.089 48.2757 179.919 46.4047H169.377C166.608 46.4047 163.909 47.3943 161.842 49.2421C159.776 51.09 158.064 53.2084 156.791 55.3655C147.105 71.8259 159.112 92.8325 178.176 92.8016H178.222C179.78 92.8016 181.269 92.1289 182.31 90.9615L189.328 83.1294H189.297Z" fill="#F5EFE6" fill-opacity="0.05"/>
</g>
</g>
<defs>
<clipPath id="clip0_263_973">
<rect width="230" height="232" rx="20" fill="white"/>
</clipPath>
</defs>
</svg>
