<svg width="19" height="19" viewBox="0 0 19 19" fill="none" xmlns="http://www.w3.org/2000/svg">
<g clip-path="url(#clip0_54_1826)">
<path d="M18.9138 5.78912C18.6751 4.8583 17.839 4.25064 16.889 4.20504L2.99265 4.20702C1.82669 3.99191 1.82471 2.34439 2.99265 2.12928L16.4086 2.09558C16.4838 2.05791 16.5898 2.02322 16.6473 1.96374C17.0544 1.54641 16.4601 0.758335 16.1163 0.475818C15.7874 0.206188 15.3793 0.0574947 14.9573 0.00297386L1.95349 0C0.913347 0.0941723 0.0941084 0.912975 0 1.95383V16.9966C0.0752868 18.0791 0.884619 18.886 1.95349 19H17.0366C18.0678 18.9009 18.89 18.0801 18.9901 17.0462C18.9376 13.2971 19.0862 9.52528 18.9138 5.78912ZM16.0688 11.0885C15.407 11.7319 15.0593 12.632 15.1168 13.5529L15.2059 14.9684L14.2173 13.9514C13.5744 13.2902 12.6749 12.9422 11.7546 12.9997L10.34 13.088L11.3564 12.0996C12.0181 11.4563 12.3649 10.5552 12.3074 9.63432L12.2192 8.21876L13.2079 9.23582C13.8498 9.898 14.7503 10.2459 15.6705 10.1884L17.0851 10.1002L16.0688 11.0885Z" fill="#F5EFE6"/>
</g>
<defs>
<clipPath id="clip0_54_1826">
<rect width="19" height="19" fill="white"/>
</clipPath>
</defs>
</svg>
