<svg width="16" height="28" viewBox="0 0 16 28" fill="none" xmlns="http://www.w3.org/2000/svg">
<path d="M2.84082 0.0805054C6.17383 0.265132 9.8071 -0.168174 13.1045 0.0775757C14.6336 0.191194 15.8562 1.32163 16 2.77679V25.3032C15.8609 26.7463 14.6618 27.8453 13.1592 27.9995H2.84082C2.11551 27.9098 1.39455 27.6078 0.881836 27.1098C0.402388 26.6422 0.0540385 25.9029 0 25.2485V2.88519C0.109222 1.39835 1.2968 0.249927 2.84082 0.0805054ZM9.02637 22.642C8.36532 22.9478 7.59588 22.9645 6.91992 22.686L5.88281 22.2582L6.37793 23.2241C6.69986 23.8533 6.71702 24.5847 6.42383 25.226L5.97461 26.2114L6.99023 25.7416C7.65243 25.4358 8.42182 25.4203 9.09668 25.6977L10.1338 26.1264L9.63965 25.1596C9.31772 24.5314 9.30171 23.8001 9.59375 23.1577L10.0439 22.1723L9.02637 22.642ZM2.59961 4.66644C2.0475 4.66665 1.59961 5.11429 1.59961 5.66644V19.2221C1.59968 19.7742 2.04755 20.2219 2.59961 20.2221H13.4004C13.9525 20.2219 14.4003 19.7742 14.4004 19.2221V5.66644C14.4004 5.11429 13.9525 4.66665 13.4004 4.66644H2.59961ZM5.82422 2.64594C5.10159 2.88645 5.21664 3.73884 5.93945 3.89301C7.22718 3.79796 8.74883 4.03348 10.0078 3.89691C10.1607 3.88047 10.3643 3.81583 10.4746 3.71429C10.8445 3.37895 10.6835 2.76089 10.1758 2.64594H5.82422Z" fill="#6B0F1A"/>
</svg>
