<svg width="34" height="23" viewBox="0 0 34 23" fill="none" xmlns="http://www.w3.org/2000/svg">
<path d="M33.9973 8.36937C33.9485 7.06791 32.8178 6.00746 31.497 6.02269C30.7903 6.0303 30.1581 6.33219 29.711 6.80914C29.5183 6.80407 29.3872 6.79138 29.3512 6.76601C28.7525 5.40874 28.1949 3.8815 27.2055 2.74241C25.0521 0.268881 18.764 -0.106587 15.6546 0.0202602C13.3496 0.11159 9.22518 0.690015 7.38526 2.11324C6.01816 3.16862 5.28322 5.25145 4.59454 6.76601C4.5637 6.78885 4.45063 6.80153 4.28617 6.8066C3.83647 6.32712 3.19147 6.02522 2.47709 6.02269C1.15625 6.01761 0.0358496 7.09074 -0.000126544 8.39474C-0.0412421 9.7723 1.08173 10.9038 2.46938 10.9038C2.53362 10.9038 2.59529 10.9012 2.65697 10.8962C0.87101 13.1794 1.07145 16.5612 3.23258 18.5527C3.34308 19.5979 3.12723 20.808 3.24543 21.8304C3.30711 22.3759 3.75167 22.8579 4.3093 22.934C4.97486 23.0228 6.96125 23.0152 7.63966 22.9391C8.00199 22.8985 8.69838 22.3759 8.69838 22.0207V21.285C8.69838 20.8512 9.05558 20.5011 9.49243 20.5011H24.4559C24.8953 20.5011 25.25 20.8512 25.25 21.285V22.0207C25.25 22.3759 25.9438 22.8985 26.3061 22.9391C26.9871 23.0152 28.9735 23.0228 29.6365 22.934C30.1967 22.8579 30.6387 22.3759 30.7029 21.8304C30.816 20.8258 30.6053 19.641 30.7158 18.6161C32.8923 16.5942 33.0876 13.1617 31.2246 10.886C31.3222 10.8987 31.425 10.9038 31.5278 10.9038C32.9257 10.9038 34.0513 9.75961 33.9973 8.36937ZM7.14884 7.26072C7.58826 6.06074 8.205 4.55379 9.08898 3.98298C12.2035 1.97879 21.5624 2.0346 24.736 3.91448C25.2988 4.24682 25.5892 4.6781 25.9001 5.23369C26.2496 5.85525 26.558 6.55798 26.8149 7.25564C26.9691 7.67932 26.653 8.12582 26.1982 8.12582H7.76558C7.3133 8.12582 6.99723 7.68185 7.14884 7.26072ZM9.2406 15.0263C8.66498 15.2369 8.21014 15.6834 7.99942 16.2517L7.6705 17.1244L7.34414 16.2517C7.13085 15.6834 6.67858 15.2369 6.10296 15.0263L5.21898 14.7016L6.10296 14.3794C6.67858 14.1688 7.13085 13.7223 7.34414 13.1541L7.6705 12.2813L7.99942 13.1541C8.21014 13.7223 8.66498 14.1688 9.2406 14.3794L10.1246 14.7016L9.2406 15.0263ZM27.8814 15.0263C27.3057 15.2369 26.8509 15.6834 26.6402 16.2517L26.3113 17.1244L25.9849 16.2517C25.7716 15.6834 25.3194 15.2369 24.7437 15.0263L23.8597 14.7016L24.7437 14.3794C25.3194 14.1688 25.7716 13.7223 25.9849 13.1541L26.3113 12.2813L26.6402 13.1541C26.8509 13.7223 27.3057 14.1688 27.8814 14.3794L28.7654 14.7016L27.8814 15.0263Z" fill="#6B0F1A"/>
</svg>
