<svg width="19" height="16" viewBox="0 0 19 16" fill="none" xmlns="http://www.w3.org/2000/svg">
<path d="M6.96136 13.7183C3.12293 13.7183 0 10.6412 0 6.85916C0 3.07709 3.12293 0 6.96136 0C10.7998 0 13.9227 3.07709 13.9227 6.85916C13.9227 10.6412 10.7998 13.7183 6.96136 13.7183ZM6.96136 2.1192C4.30873 2.1192 2.15078 4.24547 2.15078 6.85916C2.15078 9.47285 4.30873 11.5991 6.96136 11.5991C9.61399 11.5991 11.7719 9.47285 11.7719 6.85916C11.7719 4.24547 9.61399 2.1192 6.96136 2.1192Z" fill="#F5EFE6"/>
<path d="M17.9246 16C17.6794 16 17.4342 15.9181 17.232 15.7513L11.2385 10.7783C10.784 10.4011 10.7266 9.73281 11.108 9.28495C11.4909 8.83709 12.1691 8.78058 12.6236 9.15638L18.6171 14.1294C19.0716 14.5067 19.129 15.1749 18.7476 15.6228C18.5354 15.8714 18.23 16 17.9246 16Z" fill="#F5EFE6"/>
</svg>
