<svg width="18" height="17" viewBox="0 0 18 17" fill="none" xmlns="http://www.w3.org/2000/svg">
<g clip-path="url(#clip0_263_956)">
<path d="M17.7225 6.55747C17.4178 5.98664 16.9401 6.06856 16.4183 5.87476C15.3773 5.48715 14.8175 4.45472 14.9323 3.36414C14.995 2.76775 15.3967 2.42684 14.9279 1.78817C14.5482 1.27283 12.5669 0.120588 11.9364 0.0201631C11.1312 -0.106689 10.9837 0.385745 10.4822 0.796254C9.76081 1.38559 8.75865 1.48425 7.92602 1.06582C7.09516 0.648259 6.99715 -0.272302 5.84224 0.0959222C5.21887 0.294129 3.52977 1.1865 3.19513 1.72034C2.77925 2.38367 3.19601 2.73604 3.2587 3.36414C3.37084 4.48467 2.63357 5.58405 1.53781 5.86595C1.02746 5.99721 0.645142 5.92145 0.321979 6.44912C-0.0753526 7.09659 -0.0356195 8.95622 0.0809311 9.71293C0.306969 11.1717 1.28705 10.5974 2.19473 11.2325C3.00706 11.8016 3.37878 12.7829 3.1395 13.7475C3.00529 14.2858 2.71833 14.5104 3.0309 15.1121C3.26223 15.5561 4.45599 16.2775 4.92573 16.5145C5.36014 16.7339 6.01971 17.0554 6.50446 16.9911C7.05101 16.9189 7.23113 16.4062 7.59403 16.0961C8.50083 15.3217 9.90561 15.357 10.7656 16.1886C11.185 16.5947 11.2733 16.9876 12.0203 16.9189C12.6225 16.8634 14.4961 15.7252 14.8723 15.2372C15.3853 14.5712 14.9226 14.1766 14.8572 13.53C14.7363 12.3372 15.4321 11.3188 16.5781 10.9911C16.9454 10.8854 17.2368 10.9171 17.5397 10.622C17.5741 10.5886 17.6721 10.4644 17.6968 10.4229C18.1021 9.75081 18.0933 7.25164 17.7225 6.55747ZM11.6777 9.05576C10.6959 9.4187 9.92239 10.1904 9.55949 11.1691L9.00146 12.6737L8.44344 11.1691C8.08054 10.1904 7.30618 9.4187 6.32522 9.05576L4.81712 8.49902L6.32522 7.94228C7.30618 7.58022 8.08054 6.80853 8.44344 5.82895L9.00146 4.32434L9.55949 5.82895C9.92239 6.80853 10.6959 7.58022 11.6777 7.94228L13.1858 8.49902L11.6777 9.05576Z" fill="#F5EFE6"/>
</g>
<defs>
<clipPath id="clip0_263_956">
<rect width="18" height="17" fill="white"/>
</clipPath>
</defs>
</svg>
