<svg width="19" height="16" viewBox="0 0 19 16" fill="none" xmlns="http://www.w3.org/2000/svg">
<g clip-path="url(#clip0_515_1712)">
<path d="M4.96 4.38189C4.6732 4.48604 4.44839 4.70898 4.34199 4.9913L4.17917 5.42529L4.61862 5.26448C4.90542 5.16033 5.13023 4.93739 5.23662 4.65507L5.39945 4.22108L4.96 4.38189ZM4.96 4.38189C4.6732 4.48604 4.44839 4.70898 4.34199 4.9913L4.17917 5.42529L4.61862 5.26448C4.90542 5.16033 5.13023 4.93739 5.23662 4.65507L5.39945 4.22108L4.96 4.38189ZM6.45598 4.9913C6.35052 4.70898 6.12478 4.48604 5.8389 4.38189L5.39945 4.22108L5.56135 4.65507C5.66775 4.93739 5.89349 5.16033 6.17936 5.26448L6.61881 5.42529L6.45598 4.9913ZM6.45598 4.9913C6.35052 4.70898 6.12478 4.48604 5.8389 4.38189L5.39945 4.22108L5.56135 4.65507C5.66775 4.93739 5.89349 5.16033 6.17936 5.26448L6.61881 5.42529L6.45598 4.9913ZM4.34199 4.9913L4.17917 5.42529L4.61862 5.26448C4.90542 5.16033 5.13023 4.93739 5.23662 4.65507L5.39945 4.22108L4.96 4.38189C4.6732 4.48604 4.44839 4.70898 4.34199 4.9913ZM17.7531 11.3805C17.4941 11.2508 16.4329 11.354 16.0508 11.3284C11.5962 11.0251 11.6258 4.93282 16.0018 4.66878C16.3885 4.64593 17.4922 4.75009 17.7531 4.61944C18.1556 4.41752 17.9326 3.66558 17.841 3.31291C17.3396 1.38508 15.715 0.229306 13.7407 0.065761C10.659 0.227479 7.34136 -0.158085 4.28741 0.0794659C1.84221 0.268593 0.19173 1.9616 0.0455544 4.37275C-0.0978453 6.73821 0.156574 9.24438 0.0483299 11.6245C0.237062 13.9068 2.10126 15.7405 4.41046 15.936C7.45978 15.7789 10.7154 16.1407 13.7407 15.9342C15.665 15.8026 17.2813 14.6395 17.8049 12.7876C17.9085 12.4212 18.1787 11.5934 17.7531 11.3805ZM7.39872 4.38189C7.11285 4.48604 6.88711 4.70898 6.78164 4.9913L6.61881 5.42529L6.17936 5.58609C5.89349 5.69025 5.66775 5.91318 5.56135 6.1955L5.39945 6.62949L5.23662 6.1955C5.13023 5.91318 4.90542 5.69025 4.61862 5.58609L4.17917 5.42529L4.01726 4.9913C3.91087 4.70898 3.68606 4.48604 3.39926 4.38189L2.95981 4.22108L3.39926 4.06028C3.68606 3.95612 3.91087 3.73319 4.01726 3.45087L4.17917 3.01688L4.34199 3.45087C4.44839 3.73319 4.6732 3.95612 4.96 4.06028L5.39945 4.22108L5.23662 3.7871C5.13023 3.50386 4.90542 3.28184 4.61862 3.17677L4.17917 3.01597L4.61862 2.85608C4.90542 2.75101 5.13023 2.52899 5.23662 2.24575L5.39945 1.81176L5.56135 2.24575C5.66775 2.52899 5.89349 2.75101 6.17936 2.85608L6.61881 3.01597L6.17936 3.17677C5.89349 3.28184 5.66775 3.50386 5.56135 3.7871L5.39945 4.22108L5.8389 4.06028C6.12478 3.95612 6.35052 3.73319 6.45598 3.45087L6.61881 3.01688L6.78164 3.45087C6.88711 3.73319 7.11285 3.95612 7.39872 4.06028L7.83817 4.22108L7.39872 4.38189ZM5.8389 4.38189L5.39945 4.22108L5.56135 4.65507C5.66775 4.93739 5.89349 5.16033 6.17936 5.26448L6.61881 5.42529L6.45598 4.9913C6.35052 4.70898 6.12478 4.48604 5.8389 4.38189ZM5.23662 4.65507L5.39945 4.22108L4.96 4.38189C4.6732 4.48604 4.44839 4.70898 4.34199 4.9913L4.17917 5.42529L4.61862 5.26448C4.90542 5.16033 5.13023 4.93739 5.23662 4.65507ZM4.96 4.38189C4.6732 4.48604 4.44839 4.70898 4.34199 4.9913L4.17917 5.42529L4.61862 5.26448C4.90542 5.16033 5.13023 4.93739 5.23662 4.65507L5.39945 4.22108L4.96 4.38189ZM6.45598 4.9913C6.35052 4.70898 6.12478 4.48604 5.8389 4.38189L5.39945 4.22108L5.56135 4.65507C5.66775 4.93739 5.89349 5.16033 6.17936 5.26448L6.61881 5.42529L6.45598 4.9913ZM4.96 4.38189C4.6732 4.48604 4.44839 4.70898 4.34199 4.9913L4.17917 5.42529L4.61862 5.26448C4.90542 5.16033 5.13023 4.93739 5.23662 4.65507L5.39945 4.22108L4.96 4.38189Z" fill="#F5EFE6"/>
<path d="M15.7852 6.09777C16.3079 6.03655 17.5615 6.0265 18.0814 6.08498C18.4348 6.12426 18.7734 6.35999 18.8993 6.69073C19.0325 7.04066 19.0334 8.95935 18.8993 9.31019C18.8012 9.56602 18.5921 9.75789 18.334 9.84651C17.9611 9.97351 16.4171 9.9525 15.9628 9.90955C13.5296 9.68297 13.5851 6.35725 15.7852 6.09777Z" fill="#F5EFE6"/>
</g>
<defs>
<clipPath id="clip0_515_1712">
<rect width="19" height="16" fill="white"/>
</clipPath>
</defs>
</svg>
