<svg width="214" height="34" viewBox="0 0 214 34" fill="none" xmlns="http://www.w3.org/2000/svg">
<path d="M50.4 1.89001L33.75 33.39H25.965L23.22 12.195L11.835 33.39H4.00502L1.47745e-05 1.89001H7.20001L9.99002 24.03L21.825 1.89001H28.575L31.275 24.21L43.155 1.89001H50.4ZM72.1529 19.485C72.1529 20.595 72.0179 21.825 71.7479 23.175H53.2079C53.4479 26.475 55.5329 28.125 59.4629 28.125C60.6929 28.125 61.8629 27.93 62.9729 27.54C64.1129 27.15 65.1029 26.595 65.9429 25.875L68.8679 30.51C67.5179 31.59 65.9729 32.4 64.2329 32.94C62.4929 33.48 60.6629 33.75 58.7429 33.75C56.2529 33.75 54.0629 33.315 52.1729 32.445C50.3129 31.545 48.8729 30.27 47.8529 28.62C46.8629 26.97 46.3679 25.065 46.3679 22.905C46.3679 20.235 46.9679 17.835 48.1679 15.705C49.3979 13.545 51.0929 11.865 53.2529 10.665C55.4129 9.43501 57.8729 8.82001 60.6329 8.82001C62.9729 8.82001 64.9979 9.25501 66.7079 10.125C68.4479 10.995 69.7829 12.24 70.7129 13.86C71.6729 15.48 72.1529 17.355 72.1529 19.485ZM60.3179 14.085C58.6679 14.085 57.2729 14.535 56.1329 15.435C54.9929 16.305 54.1829 17.52 53.7029 19.08H65.7179C65.7179 17.52 65.2229 16.305 64.2329 15.435C63.2729 14.535 61.9679 14.085 60.3179 14.085ZM80.7898 1.26958e-05H87.8098L81.1498 33.39H74.1298L80.7898 1.26958e-05ZM100.445 33.75C97.9549 33.75 95.7799 33.3 93.9199 32.4C92.0599 31.5 90.6199 30.24 89.5999 28.62C88.6099 26.97 88.1149 25.065 88.1149 22.905C88.1149 20.235 88.7449 17.835 90.0049 15.705C91.2649 13.575 93.0199 11.895 95.2699 10.665C97.5199 9.43501 100.055 8.82001 102.875 8.82001C105.455 8.82001 107.675 9.36001 109.535 10.44C111.425 11.49 112.835 12.99 113.765 14.94L107.825 17.91C106.775 15.72 104.975 14.625 102.425 14.625C101.045 14.625 99.7999 14.97 98.6899 15.66C97.6099 16.32 96.7549 17.25 96.1249 18.45C95.5249 19.65 95.2249 21.015 95.2249 22.545C95.2249 24.195 95.7199 25.515 96.7099 26.505C97.6999 27.465 99.0799 27.945 100.85 27.945C103.43 27.945 105.41 26.865 106.79 24.705L111.965 27.945C110.795 29.775 109.19 31.2 107.15 32.22C105.14 33.24 102.905 33.75 100.445 33.75ZM174.93 8.82001C177.57 8.82001 179.67 9.54001 181.23 10.98C182.79 12.39 183.57 14.4 183.57 17.01C183.57 17.97 183.465 18.96 183.255 19.98L180.6 33.39H173.58L176.145 20.475C176.265 19.875 176.325 19.26 176.325 18.63C176.325 17.4 175.995 16.47 175.335 15.84C174.705 15.21 173.76 14.895 172.5 14.895C169.11 14.895 166.995 16.92 166.155 20.97L163.68 33.39H156.66L159.225 20.475C159.345 19.875 159.405 19.275 159.405 18.675C159.405 17.445 159.075 16.515 158.415 15.885C157.785 15.225 156.84 14.895 155.58 14.895C152.19 14.895 150.06 16.95 149.19 21.06L146.76 33.39H139.74L144.555 9.18001H151.215L150.675 11.7C152.775 9.78001 155.31 8.82001 158.28 8.82001C159.96 8.82001 161.445 9.16501 162.735 9.85501C164.055 10.515 165.045 11.49 165.705 12.78C166.875 11.49 168.24 10.515 169.8 9.85501C171.36 9.16501 173.07 8.82001 174.93 8.82001ZM213.481 19.485C213.481 20.595 213.346 21.825 213.076 23.175H194.536C194.776 26.475 196.861 28.125 200.791 28.125C202.021 28.125 203.191 27.93 204.301 27.54C205.441 27.15 206.431 26.595 207.271 25.875L210.196 30.51C208.846 31.59 207.301 32.4 205.561 32.94C203.821 33.48 201.991 33.75 200.071 33.75C197.581 33.75 195.391 33.315 193.501 32.445C191.641 31.545 190.201 30.27 189.181 28.62C188.191 26.97 187.696 25.065 187.696 22.905C187.696 20.235 188.296 17.835 189.496 15.705C190.726 13.545 192.421 11.865 194.581 10.665C196.741 9.43501 199.201 8.82001 201.961 8.82001C204.301 8.82001 206.326 9.25501 208.036 10.125C209.776 10.995 211.111 12.24 212.041 13.86C213.001 15.48 213.481 17.355 213.481 19.485ZM201.646 14.085C199.996 14.085 198.601 14.535 197.461 15.435C196.321 16.305 195.511 17.52 195.031 19.08H207.046C207.046 17.52 206.551 16.305 205.561 15.435C204.601 14.535 203.296 14.085 201.646 14.085Z" fill="#6B0F1A"/>
</svg>
