<svg width="133" height="21" viewBox="0 0 133 21" fill="none" xmlns="http://www.w3.org/2000/svg">
<path d="M31.36 1.176L21 20.776H16.156L14.448 7.588L7.36401 20.776H2.49201L1.3262e-05 1.176H4.48001L6.21601 14.952L13.58 1.176H17.78L19.46 15.064L26.852 1.176H31.36ZM44.8952 12.124C44.8952 12.8147 44.8112 13.58 44.6432 14.42H33.1072C33.2565 16.4733 34.5538 17.5 36.9992 17.5C37.7645 17.5 38.4925 17.3787 39.1832 17.136C39.8925 16.8933 40.5085 16.548 41.0312 16.1L42.8512 18.984C42.0112 19.656 41.0498 20.16 39.9672 20.496C38.8845 20.832 37.7458 21 36.5512 21C35.0018 21 33.6392 20.7293 32.4632 20.188C31.3058 19.628 30.4098 18.8347 29.7752 17.808C29.1592 16.7813 28.8512 15.596 28.8512 14.252C28.8512 12.5907 29.2245 11.0973 29.9712 9.772C30.7365 8.428 31.7912 7.38267 33.1352 6.636C34.4792 5.87067 36.0098 5.488 37.7272 5.488C39.1832 5.488 40.4432 5.75867 41.5072 6.3C42.5898 6.84133 43.4205 7.616 43.9992 8.624C44.5965 9.632 44.8952 10.7987 44.8952 12.124ZM37.5312 8.764C36.5045 8.764 35.6365 9.044 34.9272 9.604C34.2178 10.1453 33.7138 10.9013 33.4152 11.872H40.8912C40.8912 10.9013 40.5832 10.1453 39.9672 9.604C39.3698 9.044 38.5578 8.764 37.5312 8.764ZM50.2692 -2.38419e-07H54.6372L50.4932 20.776H46.1252L50.2692 -2.38419e-07ZM62.4991 21C60.9497 21 59.5964 20.72 58.4391 20.16C57.2817 19.6 56.3857 18.816 55.7511 17.808C55.1351 16.7813 54.8271 15.596 54.8271 14.252C54.8271 12.5907 55.2191 11.0973 56.0031 9.772C56.7871 8.44667 57.8791 7.40133 59.2791 6.636C60.6791 5.87067 62.2564 5.488 64.0111 5.488C65.6164 5.488 66.9977 5.824 68.1551 6.496C69.3311 7.14933 70.2084 8.08267 70.7871 9.296L67.0911 11.144C66.4377 9.78133 65.3177 9.1 63.7311 9.1C62.8724 9.1 62.0977 9.31467 61.4071 9.744C60.7351 10.1547 60.2031 10.7333 59.8111 11.48C59.4377 12.2267 59.2511 13.076 59.2511 14.028C59.2511 15.0547 59.5591 15.876 60.1751 16.492C60.7911 17.0893 61.6497 17.388 62.7511 17.388C64.3564 17.388 65.5884 16.716 66.4471 15.372L69.6671 17.388C68.9391 18.5267 67.9404 19.4133 66.6711 20.048C65.4204 20.6827 64.0297 21 62.4991 21ZM108.845 5.488C110.488 5.488 111.795 5.936 112.765 6.832C113.736 7.70933 114.221 8.96 114.221 10.584C114.221 11.1813 114.156 11.7973 114.025 12.432L112.373 20.776H108.005L109.601 12.74C109.676 12.3667 109.713 11.984 109.713 11.592C109.713 10.8267 109.508 10.248 109.097 9.856C108.705 9.464 108.117 9.268 107.333 9.268C105.224 9.268 103.908 10.528 103.385 13.048L101.845 20.776H97.4774L99.0734 12.74C99.1481 12.3667 99.1854 11.9933 99.1854 11.62C99.1854 10.8547 98.9801 10.276 98.5694 9.884C98.1774 9.47333 97.5894 9.268 96.8054 9.268C94.6961 9.268 93.3708 10.5467 92.8294 13.104L91.3174 20.776H86.9494L89.9454 5.712H94.0894L93.7534 7.28C95.0601 6.08533 96.6374 5.488 98.4854 5.488C99.5308 5.488 100.455 5.70267 101.257 6.132C102.079 6.54267 102.695 7.14933 103.105 7.952C103.833 7.14933 104.683 6.54267 105.653 6.132C106.624 5.70267 107.688 5.488 108.845 5.488ZM132.833 12.124C132.833 12.8147 132.749 13.58 132.581 14.42H121.045C121.194 16.4733 122.491 17.5 124.937 17.5C125.702 17.5 126.43 17.3787 127.121 17.136C127.83 16.8933 128.446 16.548 128.969 16.1L130.789 18.984C129.949 19.656 128.987 20.16 127.905 20.496C126.822 20.832 125.683 21 124.489 21C122.939 21 121.577 20.7293 120.401 20.188C119.243 19.628 118.347 18.8347 117.713 17.808C117.097 16.7813 116.789 15.596 116.789 14.252C116.789 12.5907 117.162 11.0973 117.909 9.772C118.674 8.428 119.729 7.38267 121.073 6.636C122.417 5.87067 123.947 5.488 125.665 5.488C127.121 5.488 128.381 5.75867 129.445 6.3C130.527 6.84133 131.358 7.616 131.937 8.624C132.534 9.632 132.833 10.7987 132.833 12.124ZM125.469 8.764C124.442 8.764 123.574 9.044 122.865 9.604C122.155 10.1453 121.651 10.9013 121.353 11.872H128.829C128.829 10.9013 128.521 10.1453 127.905 9.604C127.307 9.044 126.495 8.764 125.469 8.764Z" fill="#6B0F1A"/>
</svg>
