<svg width="351" height="294" viewBox="0 0 351 294" fill="none" xmlns="http://www.w3.org/2000/svg">
<path d="M92.7389 190.851C70.3989 193.027 51.799 174.562 53.989 152.383C55.609 135.955 68.9689 122.656 85.4989 121.007C107.869 118.772 126.539 137.296 124.299 159.535C122.649 175.963 109.279 189.242 92.7389 190.851ZM147.739 88.1602L137.119 100.625C133.659 104.708 127.679 105.552 123.149 102.672C107.859 92.9874 88.3289 89.5806 68.6489 96.1757C62.589 98.2019 57.009 101.152 51.879 104.767C46.699 108.412 43.069 109.833 43.949 102.026C48.399 71.2652 72.8089 48.6094 102.089 43.5935C109.469 42.3321 116.989 45.1628 121.829 50.8541L147.739 81.3168C149.409 83.2934 149.409 86.1738 147.739 88.1602ZM257.659 190.851C241.119 189.242 227.739 175.953 226.099 159.535C223.869 137.296 242.529 118.772 264.899 121.007C281.429 122.656 294.789 135.955 296.409 152.383C298.599 174.572 279.999 193.037 257.659 190.851ZM298.519 104.757C293.389 101.142 287.819 98.192 281.749 96.1658C262.069 89.5706 242.539 92.9675 227.249 102.662C222.719 105.542 216.739 104.708 213.279 100.616L202.659 88.1503C200.989 86.1638 200.989 83.2834 202.659 81.3069L228.569 50.8442C233.399 45.1529 240.929 42.3221 248.309 43.5836C277.589 48.5895 301.999 71.2553 306.449 102.016C307.329 109.823 303.709 108.403 298.519 104.757ZM132.299 8.32348C127.539 3.0593 120.749 0.0398416 113.629 0.00011192H113.509H113.399C26.279 -0.119077 -28.591 94.9838 15.659 169.527C21.479 179.29 29.439 189.034 38.749 197.258C48.219 205.621 60.5289 210.11 73.1989 210.11H121.399C135.899 201.628 147.079 187.614 150.979 170.659C152.979 162.316 153.259 154.161 152.089 146.464C151.629 143.444 152.509 140.385 154.499 138.071L164.089 126.787C169.909 119.944 180.529 119.944 186.349 126.787L195.929 138.061C197.919 140.385 198.789 143.434 198.339 146.454C197.159 154.151 197.439 162.306 199.449 170.649C203.349 187.604 214.529 201.618 229.029 210.101H277.229C289.899 210.101 302.209 205.611 311.679 197.248C320.989 189.024 328.949 179.28 334.769 169.517C378.999 94.9838 324.129 -0.119077 237.009 0.00011192H236.789C229.659 0.0299092 222.879 3.0593 218.109 8.33341L186.049 43.7921C180.259 50.1886 170.169 50.1886 164.379 43.7921L132.299 8.32348Z" fill="#F5EFE6"/>
<path d="M261.249 207.151H175.199V210.11H261.249V207.151Z" fill="#F5EFE6"/>
<path d="M261.249 200.307H186.729V203.267H261.249V200.307Z" fill="#F5EFE6"/>
<path d="M261.249 193.464H197.149V196.424H261.249V193.464Z" fill="#F5EFE6"/>
<path d="M89.1289 206.833H3.07895V209.793H89.1289V206.833Z" fill="#F5EFE6"/>
<path d="M89.1289 199.989H14.6089V202.949H89.1289V199.989Z" fill="#F5EFE6"/>
<path d="M89.129 193.146H25.029V196.106H89.129V193.146Z" fill="#F5EFE6"/>
<path d="M141.029 228.615L128.139 293.106H114.039L121.649 254.786L96.889 286.292H90.209L76.849 254.419L69.059 293.116H54.959L67.949 228.624H80.189L96.419 268.791L128.139 228.624H141.029V228.615Z" fill="#F5EFE6"/>
<path d="M169.039 240.593L166.259 254.598H196.399L194.079 266.209H163.839L160.869 281.137H196.299L193.799 293.116H143.529L156.519 228.625H205.589L203.089 240.603H169.049L169.039 240.593Z" fill="#F5EFE6"/>
<path d="M242.899 268.275H253.149L249.129 288.09C246.679 289.967 243.839 291.417 240.609 292.42C237.379 293.424 234.029 293.93 230.569 293.93C225.719 293.93 221.499 293.056 217.899 291.318C214.299 289.58 211.519 287.126 209.549 283.958C207.589 280.79 206.609 277.144 206.609 273.022C206.609 267.56 207.879 262.633 210.419 258.233C212.959 253.833 216.539 250.376 221.159 247.883C225.779 245.38 231.089 244.139 237.089 244.139C241.709 244.139 245.709 244.854 249.109 246.274C252.499 247.695 255.239 249.781 257.319 252.532L249.289 258.998C247.669 257.121 245.849 255.75 243.819 254.906C241.789 254.061 239.389 253.634 236.619 253.634C232.929 253.634 229.669 254.449 226.849 256.078C224.029 257.707 221.849 259.941 220.309 262.782C218.769 265.623 217.989 268.811 217.989 272.347C217.989 276.062 219.199 279.012 221.629 281.187C224.049 283.362 227.529 284.455 232.049 284.455C234.909 284.455 237.589 283.878 240.079 282.736L242.919 268.295L242.899 268.275Z" fill="#FFC947"/>
<path d="M267.389 291.596C264.549 290.225 262.359 288.279 260.809 285.786C259.259 283.283 258.489 280.382 258.489 277.085C258.489 273.003 259.459 269.337 261.399 266.08C263.339 262.822 266.019 260.259 269.429 258.372C272.849 256.495 276.699 255.551 280.999 255.551C284.789 255.551 288.089 256.237 290.899 257.617C293.709 258.998 295.899 260.935 297.449 263.428C298.999 265.931 299.769 268.831 299.769 272.128C299.769 276.211 298.809 279.876 296.899 283.134C294.979 286.391 292.309 288.964 288.869 290.841C285.429 292.718 281.559 293.662 277.269 293.662C273.529 293.662 270.239 292.977 267.399 291.596H267.389ZM283.559 283.233C285.219 282.2 286.509 280.77 287.439 278.932C288.359 277.095 288.829 274.989 288.829 272.605C288.829 270.082 288.089 268.086 286.609 266.616C285.129 265.146 283.049 264.411 280.379 264.411C278.259 264.411 276.359 264.927 274.699 265.96C273.039 266.993 271.739 268.424 270.819 270.261C269.899 272.099 269.439 274.204 269.439 276.588C269.439 279.111 270.189 281.107 271.689 282.577C273.189 284.047 275.279 284.782 277.959 284.782C280.039 284.782 281.909 284.266 283.569 283.233H283.559Z" fill="#FFC947"/>
</svg>
