<svg width="351" height="211" viewBox="0 0 351 211" fill="none" xmlns="http://www.w3.org/2000/svg">
<path d="M92.7389 190.851C70.3989 193.027 51.799 174.562 53.989 152.383C55.609 135.955 68.9689 122.656 85.4989 121.007C107.869 118.772 126.539 137.296 124.299 159.535C122.649 175.963 109.279 189.242 92.7389 190.851ZM147.739 88.1602L137.119 100.625C133.659 104.708 127.679 105.552 123.149 102.672C107.859 92.9874 88.3289 89.5806 68.6489 96.1757C62.589 98.2019 57.009 101.152 51.879 104.767C46.699 108.412 43.069 109.833 43.949 102.026C48.399 71.2652 72.8089 48.6094 102.089 43.5935C109.469 42.3321 116.989 45.1628 121.829 50.8541L147.739 81.3168C149.409 83.2934 149.409 86.1738 147.739 88.1602ZM257.659 190.851C241.119 189.242 227.739 175.953 226.099 159.535C223.869 137.296 242.529 118.772 264.899 121.007C281.429 122.656 294.789 135.955 296.409 152.383C298.599 174.572 279.999 193.037 257.659 190.851ZM298.519 104.757C293.389 101.142 287.819 98.192 281.749 96.1658C262.069 89.5706 242.539 92.9675 227.249 102.662C222.719 105.542 216.739 104.708 213.279 100.616L202.659 88.1503C200.989 86.1638 200.989 83.2834 202.659 81.3069L228.569 50.8442C233.399 45.1529 240.929 42.3221 248.309 43.5836C277.589 48.5895 301.999 71.2553 306.449 102.016C307.329 109.823 303.709 108.403 298.519 104.757ZM132.299 8.32348C127.539 3.0593 120.749 0.0398416 113.629 0.00011192H113.509H113.399C26.279 -0.119077 -28.591 94.9838 15.659 169.527C21.479 179.29 29.439 189.034 38.749 197.258C48.219 205.621 60.5289 210.11 73.1989 210.11H121.399C135.899 201.628 147.079 187.614 150.979 170.659C152.979 162.316 153.259 154.161 152.089 146.464C151.629 143.444 152.509 140.385 154.499 138.071L164.089 126.787C169.909 119.944 180.529 119.944 186.349 126.787L195.929 138.061C197.919 140.385 198.789 143.434 198.339 146.454C197.159 154.151 197.439 162.306 199.449 170.649C203.349 187.604 214.529 201.618 229.029 210.101H277.229C289.899 210.101 302.209 205.611 311.679 197.248C320.989 189.024 328.949 179.28 334.769 169.517C378.999 94.9838 324.129 -0.119077 237.009 0.00011192H236.789C229.659 0.0299092 222.879 3.0593 218.109 8.33341L186.049 43.7921C180.259 50.1886 170.169 50.1886 164.379 43.7921L132.299 8.32348Z" fill="#F5EFE6"/>
<path d="M261.249 207.151H175.199V210.11H261.249V207.151Z" fill="#F5EFE6"/>
<path d="M261.249 200.307H186.729V203.267H261.249V200.307Z" fill="#F5EFE6"/>
<path d="M261.249 193.464H197.149V196.424H261.249V193.464Z" fill="#F5EFE6"/>
<path d="M89.129 206.833H3.07898V209.793H89.129V206.833Z" fill="#F5EFE6"/>
<path d="M89.1289 199.989H14.6089V202.949H89.1289V199.989Z" fill="#F5EFE6"/>
<path d="M89.1289 193.146H25.0289V196.106H89.1289V193.146Z" fill="#F5EFE6"/>
</svg>
