<svg width="392" height="162" viewBox="0 0 392 162" fill="none" xmlns="http://www.w3.org/2000/svg">
<path d="M34.5812 154.76C26.2481 155.576 19.3213 148.639 20.1362 140.293C20.7408 134.119 25.7223 129.117 31.8868 128.499C40.233 127.656 47.1861 134.62 46.3581 142.992C45.7403 149.165 40.7588 154.168 34.5944 154.773L34.5812 154.76ZM55.0987 116.151L51.1424 120.837C49.8543 122.378 47.6199 122.694 45.9375 121.601C40.2331 117.955 32.9514 116.678 25.6172 119.166C23.3564 119.929 21.2797 121.035 19.3607 122.391C17.4286 123.76 16.0748 124.299 16.4034 121.364C18.0595 109.793 27.1681 101.276 38.0775 99.3939C40.8245 98.92 43.6373 99.9863 45.438 102.119L55.0987 113.571C55.7164 114.308 55.7164 115.401 55.0987 116.138V116.151ZM96.0809 154.76C89.9165 154.155 84.9219 149.165 84.3173 142.979C83.4892 134.62 90.4423 127.656 98.7886 128.485C104.953 129.104 109.934 134.106 110.539 140.28C111.354 148.626 104.414 155.563 96.0941 154.747L96.0809 154.76ZM111.315 122.391C109.396 121.035 107.319 119.929 105.058 119.166C97.7239 116.691 90.4423 117.968 84.7379 121.601C83.0423 122.68 80.821 122.364 79.5329 120.837L75.5767 116.151C74.9589 115.401 74.9589 114.321 75.5767 113.584L85.2373 102.132C87.038 99.9863 89.8508 98.9332 92.5978 99.4071C103.52 101.29 112.616 109.806 114.272 121.377C114.601 124.313 113.247 123.786 111.315 122.404V122.391ZM49.3285 86.125C47.5541 84.1505 45.0174 83.0053 42.3623 82.9921H42.3229H42.2835C9.79206 82.9526 -10.6597 118.705 5.83579 146.73C8.00451 150.403 10.975 154.062 14.445 157.156C17.9149 160.249 22.5678 161.987 27.2864 161.987H45.254C50.6561 158.801 54.8226 153.523 56.2816 147.151C57.0308 144.019 57.1359 140.951 56.6891 138.055C56.5182 136.923 56.8468 135.765 57.5828 134.896L61.1579 130.657C63.3267 128.077 67.2829 128.091 69.4517 130.657L73.0268 134.896C73.7628 135.765 74.0914 136.923 73.9206 138.055C73.4868 140.951 73.592 144.019 74.328 147.151C75.787 153.523 79.9535 158.801 85.3556 161.987H103.323C108.042 161.987 112.642 160.302 116.165 157.156C119.687 154.01 122.605 150.403 124.774 146.73C141.282 118.705 120.818 82.9395 88.3261 82.9921H88.2473C85.5922 82.9921 83.0555 84.1373 81.2811 86.125L69.3202 99.4598C67.1646 101.869 63.3924 101.869 61.2368 99.4598L49.276 86.125H49.3285Z" fill="#F5EFE6" fill-opacity="0.05"/>
<path d="M46.3581 23.0188C47.1861 31.3777 40.2331 38.3412 31.8868 37.5119C25.7224 36.8932 20.7409 31.891 20.1362 25.7173C19.3213 17.3716 26.2613 10.4344 34.5813 11.2505C40.7457 11.856 45.7403 16.845 46.3449 23.0319L46.3581 23.0188ZM55.0987 52.4262L45.438 63.8786C43.6373 66.0242 40.8246 67.0773 38.0775 66.6034C27.155 64.721 18.0595 56.2042 16.4034 44.6334C16.0748 41.6979 17.4286 42.2245 19.3608 43.6066C21.2798 44.9625 23.3565 46.0682 25.6172 46.8317C32.9514 49.3065 40.2331 48.0296 45.9375 44.3964C47.633 43.317 49.8543 43.6329 51.1424 45.1599L55.0987 49.8462C55.7164 50.5965 55.7164 51.6759 55.0987 52.4131V52.4262ZM110.526 25.7041C109.921 31.8779 104.94 36.88 98.7755 37.4987C90.4292 38.3412 83.4761 31.3776 84.3042 23.0056C84.9219 16.8319 89.9034 11.8297 96.0678 11.2242C104.401 10.408 111.328 17.3453 110.513 25.691L110.526 25.7041ZM114.272 44.6465C112.616 56.2173 103.507 64.7342 92.5979 66.6166C89.8508 67.0905 87.0381 66.0242 85.2374 63.8917L75.5767 52.4394C74.9589 51.7022 74.9589 50.6097 75.5767 49.8725L79.533 45.1863C80.8211 43.6461 83.0555 43.3302 84.7379 44.4228C90.4423 48.0691 97.724 49.346 105.058 46.858C107.319 46.0946 109.396 44.9888 111.315 43.6329C113.247 42.2639 114.601 41.7242 114.272 44.6597V44.6465ZM61.2894 66.5376C63.445 64.1287 67.2173 64.1287 69.3728 66.5376L81.3337 79.8723C83.1081 81.86 85.6448 82.9921 88.2999 83.0053H88.3393H88.3787C120.87 83.0447 141.322 47.2924 124.826 19.2671C122.658 15.5945 119.687 11.935 116.217 8.84158C112.682 5.69548 108.094 4.01054 103.376 4.01054H85.4082C80.0062 7.19613 75.8396 12.4747 74.3806 18.8459C73.6314 21.9788 73.5263 25.046 73.9732 27.9419C74.144 29.074 73.8154 30.2324 73.0794 31.1012L69.5043 35.3399C67.3356 37.92 63.3793 37.92 61.2106 35.3399L57.6354 31.1012C56.8994 30.2324 56.5708 29.074 56.7417 27.9419C57.1754 25.046 57.0703 21.9788 56.3342 18.8459C54.8753 12.4747 50.7087 7.19613 45.3066 4.01054H27.339C22.6204 4.01054 18.0201 5.69548 14.4976 8.84158C10.975 11.9877 8.05712 15.5945 5.8884 19.2671C-10.6202 47.2924 9.84467 83.0579 42.3361 83.0053H42.415C45.07 83.0053 47.6067 81.86 49.3812 79.8723L61.342 66.5376H61.2894Z" fill="#F5EFE6" fill-opacity="0.05"/>
<path d="M34.5812 -3.24261C26.2481 -2.42648 19.3213 -9.36368 20.1362 -17.7094C20.7408 -23.8831 25.7223 -28.8853 31.8868 -29.504C40.233 -30.3465 47.1861 -23.3829 46.3581 -15.0109C45.7403 -8.83713 40.7588 -3.83497 34.5944 -3.22944L34.5812 -3.24261ZM55.0987 -41.8514L51.1424 -37.1652C49.8543 -35.625 47.6199 -35.3091 45.9375 -36.4017C40.2331 -40.048 32.9514 -41.3249 25.6172 -38.837C23.3564 -38.0735 21.2797 -36.9677 19.3607 -35.6119C17.4286 -34.2429 16.0748 -33.7032 16.4034 -36.6387C18.0595 -48.2094 27.1681 -56.7263 38.0775 -58.6087C40.8245 -59.0826 43.6373 -58.0163 45.438 -55.8838L55.0987 -44.4315C55.7164 -43.6943 55.7164 -42.6018 55.0987 -41.8646V-41.8514ZM96.0809 -3.24261C89.9165 -3.84814 84.9219 -8.83714 84.3173 -15.024C83.4892 -23.3829 90.4423 -30.3464 98.7886 -29.5171C104.953 -28.8984 109.934 -23.8963 110.539 -17.7226C111.354 -9.37685 104.414 -2.43963 96.0941 -3.25578L96.0809 -3.24261ZM111.315 -35.6119C109.396 -36.9677 107.319 -38.0735 105.058 -38.837C97.7239 -41.3117 90.4423 -40.0348 84.7379 -36.4017C83.0423 -35.3223 80.821 -35.6382 79.5329 -37.1652L75.5767 -41.8514C74.9589 -42.6017 74.9589 -43.6812 75.5767 -44.4183L85.2373 -55.8707C87.038 -58.0163 89.8508 -59.0694 92.5978 -58.5955C103.52 -56.7131 112.616 -48.1963 114.272 -36.6255C114.601 -33.69 113.247 -34.2165 111.315 -35.5987V-35.6119ZM49.3285 -71.8644C47.5541 -73.839 45.0174 -74.9842 42.3623 -74.9974H42.3229H42.2835C9.79206 -75.0369 -10.6597 -39.2845 5.83579 -11.2592C8.00451 -7.5866 10.975 -3.92712 14.445 -0.833679C17.9149 2.25977 22.5678 3.99736 27.2864 3.99736H45.254C50.6561 0.811768 54.8226 -4.46682 56.2816 -10.838C57.0308 -13.9709 57.1359 -17.0381 56.6891 -19.934C56.5182 -21.0661 56.8468 -22.2245 57.5828 -23.0933L61.1579 -27.332C63.3267 -29.912 67.2829 -29.8989 69.4517 -27.332L73.0268 -23.0933C73.7628 -22.2245 74.0914 -21.0661 73.9206 -19.934C73.4868 -17.0381 73.592 -13.9709 74.328 -10.838C75.787 -4.46682 79.9535 0.811768 85.3556 3.99736H103.323C108.042 3.99736 112.642 2.31242 116.165 -0.833679C119.687 -3.97977 122.605 -7.5866 124.774 -11.2592C141.282 -39.2845 120.818 -75.05 88.3261 -74.9974H88.2473C85.5922 -74.9974 83.0555 -73.8521 81.2811 -71.8644L69.3202 -58.5297C67.1646 -56.1208 63.3924 -56.1208 61.2368 -58.5297L49.276 -71.8644H49.3285Z" fill="#F5EFE6" fill-opacity="0.05"/>
<path d="M165.244 154.76C156.91 155.576 149.984 148.639 150.799 140.293C151.403 134.119 156.385 129.117 162.549 128.499C170.895 127.656 177.848 134.62 177.02 142.992C176.403 149.165 171.421 154.168 165.257 154.773L165.244 154.76ZM185.761 116.151L181.805 120.837C180.517 122.378 178.282 122.694 176.6 121.601C170.895 117.955 163.614 116.678 156.28 119.166C154.019 119.929 151.942 121.035 150.023 122.391C148.091 123.76 146.737 124.299 147.066 121.364C148.722 109.793 157.831 101.276 168.74 99.3939C171.487 98.92 174.3 99.9863 176.1 102.119L185.761 113.571C186.379 114.308 186.379 115.401 185.761 116.138V116.151ZM226.743 154.76C220.579 154.155 215.584 149.165 214.98 142.979C214.152 134.62 221.105 127.656 229.451 128.485C235.615 129.104 240.597 134.106 241.201 140.28C242.016 148.626 235.077 155.563 226.757 154.747L226.743 154.76ZM241.99 122.391C240.071 121.035 237.994 119.929 235.734 119.166C228.399 116.691 221.118 117.968 215.413 121.601C213.718 122.68 211.497 122.364 210.208 120.837L206.252 116.151C205.634 115.401 205.634 114.321 206.252 113.584L215.913 102.132C217.714 99.9863 220.526 98.9332 223.273 99.4071C234.196 101.29 243.291 109.806 244.947 121.377C245.276 124.313 243.922 123.786 241.99 122.404V122.391ZM180.004 86.125C178.23 84.1505 175.693 83.0053 173.038 82.9921H172.998H172.959C140.468 82.9526 120.016 118.705 136.511 146.73C138.68 150.403 141.651 154.062 145.121 157.156C148.59 160.249 153.243 161.987 157.962 161.987H175.93C181.332 158.801 185.498 153.523 186.957 147.151C187.706 144.019 187.811 140.951 187.365 138.055C187.194 136.923 187.522 135.765 188.258 134.896L191.833 130.657C194.002 128.077 197.958 128.091 200.127 130.657L203.702 134.896C204.438 135.765 204.767 136.923 204.596 138.055C204.162 140.951 204.267 144.019 205.004 147.151C206.463 153.523 210.629 158.801 216.031 161.987H233.999C238.717 161.987 243.318 160.302 246.84 157.156C250.363 154.01 253.281 150.403 255.449 146.73C271.958 118.705 251.493 82.9395 219.002 82.9921H218.923C216.268 82.9921 213.731 84.1373 211.957 86.125L199.996 99.4598C197.84 101.869 194.068 101.869 191.912 99.4598L179.952 86.125H180.004Z" fill="#F5EFE6" fill-opacity="0.05"/>
<path d="M177.02 23.0188C177.849 31.3777 170.895 38.3412 162.549 37.5119C156.385 36.8932 151.403 31.891 150.799 25.7173C149.984 17.3716 156.924 10.4344 165.244 11.2505C171.408 11.856 176.403 16.845 177.007 23.0319L177.02 23.0188ZM185.761 52.4262L176.1 63.8786C174.3 66.0242 171.487 67.0773 168.74 66.6034C157.817 64.721 148.722 56.2042 147.066 44.6334C146.737 41.6979 148.091 42.2245 150.023 43.6066C151.942 44.9625 154.019 46.0682 156.28 46.8317C163.614 49.3065 170.895 48.0296 176.6 44.3964C178.295 43.317 180.517 43.6329 181.805 45.1599L185.761 49.8462C186.379 50.5965 186.379 51.6759 185.761 52.4131V52.4262ZM241.202 25.7041C240.597 31.8779 235.615 36.88 229.451 37.4987C221.105 38.3412 214.152 31.3776 214.98 23.0056C215.597 16.8319 220.579 11.8297 226.743 11.2242C235.077 10.408 242.003 17.3453 241.188 25.691L241.202 25.7041ZM244.934 44.6465C243.278 56.2173 234.17 64.7342 223.26 66.6166C220.513 67.0905 217.7 66.0242 215.9 63.8917L206.239 52.4394C205.621 51.7022 205.621 50.6097 206.239 49.8725L210.195 45.1863C211.483 43.6461 213.718 43.3302 215.4 44.4228C221.105 48.0691 228.386 49.346 235.721 46.858C237.981 46.0946 240.058 44.9888 241.977 43.6329C243.909 42.2639 245.263 41.7242 244.934 44.6597V44.6465ZM191.965 66.5376C194.121 64.1287 197.893 64.1287 200.048 66.5376L212.009 79.8723C213.784 81.86 216.32 82.9921 218.975 83.0053H219.015H219.054C251.546 83.0447 271.997 47.2924 255.502 19.2671C253.333 15.5945 250.363 11.935 246.893 8.84158C243.357 5.69548 238.77 4.01054 234.051 4.01054H216.084C210.682 7.19613 206.515 12.4747 205.056 18.8459C204.307 21.9788 204.202 25.046 204.649 27.9419C204.82 29.074 204.491 30.2324 203.755 31.1012L200.18 35.3399C198.011 37.92 194.055 37.92 191.886 35.3399L188.311 31.1012C187.575 30.2324 187.246 29.074 187.417 27.9419C187.851 25.046 187.746 21.9788 187.01 18.8459C185.551 12.4747 181.384 7.19613 175.982 4.01054H158.015C153.296 4.01054 148.696 5.69548 145.173 8.84158C141.651 11.9877 138.733 15.5945 136.564 19.2671C120.055 47.2924 140.52 83.0579 173.012 83.0053H173.09C175.746 83.0053 178.282 81.86 180.057 79.8723L192.018 66.5376H191.965Z" fill="#F5EFE6" fill-opacity="0.05"/>
<path d="M165.244 -3.24261C156.91 -2.42648 149.984 -9.36368 150.799 -17.7094C151.403 -23.8831 156.385 -28.8853 162.549 -29.504C170.895 -30.3465 177.848 -23.3829 177.02 -15.0109C176.403 -8.83713 171.421 -3.83497 165.257 -3.22944L165.244 -3.24261ZM185.761 -41.8514L181.805 -37.1652C180.517 -35.625 178.282 -35.3091 176.6 -36.4017C170.895 -40.048 163.614 -41.3249 156.28 -38.837C154.019 -38.0735 151.942 -36.9677 150.023 -35.6119C148.091 -34.2429 146.737 -33.7032 147.066 -36.6387C148.722 -48.2094 157.831 -56.7263 168.74 -58.6087C171.487 -59.0826 174.3 -58.0163 176.1 -55.8838L185.761 -44.4315C186.379 -43.6943 186.379 -42.6018 185.761 -41.8646V-41.8514ZM226.743 -3.24261C220.579 -3.84814 215.584 -8.83714 214.98 -15.024C214.152 -23.3829 221.105 -30.3464 229.451 -29.5171C235.615 -28.8984 240.597 -23.8963 241.201 -17.7226C242.016 -9.37685 235.077 -2.43963 226.757 -3.25578L226.743 -3.24261ZM241.99 -35.6119C240.071 -36.9677 237.994 -38.0735 235.734 -38.837C228.399 -41.3117 221.118 -40.0348 215.413 -36.4017C213.718 -35.3223 211.497 -35.6382 210.208 -37.1652L206.252 -41.8514C205.634 -42.6017 205.634 -43.6812 206.252 -44.4183L215.913 -55.8707C217.714 -58.0163 220.526 -59.0694 223.273 -58.5955C234.196 -56.7131 243.291 -48.1963 244.947 -36.6255C245.276 -33.69 243.922 -34.2165 241.99 -35.5987V-35.6119ZM180.004 -71.8644C178.23 -73.839 175.693 -74.9842 173.038 -74.9974H172.998H172.959C140.468 -75.0369 120.016 -39.2845 136.511 -11.2592C138.68 -7.5866 141.651 -3.92712 145.121 -0.833679C148.59 2.25977 153.243 3.99736 157.962 3.99736H175.93C181.332 0.811768 185.498 -4.46682 186.957 -10.838C187.706 -13.9709 187.811 -17.0381 187.365 -19.934C187.194 -21.0661 187.522 -22.2245 188.258 -23.0933L191.833 -27.332C194.002 -29.912 197.958 -29.8989 200.127 -27.332L203.702 -23.0933C204.438 -22.2245 204.767 -21.0661 204.596 -19.934C204.162 -17.0381 204.267 -13.9709 205.004 -10.838C206.463 -4.46682 210.629 0.811768 216.031 3.99736H233.999C238.717 3.99736 243.318 2.31242 246.84 -0.833679C250.363 -3.97977 253.281 -7.5866 255.449 -11.2592C271.958 -39.2845 251.493 -75.05 219.002 -74.9974H218.923C216.268 -74.9974 213.731 -73.8521 211.957 -71.8644L199.996 -58.5297C197.84 -56.1208 194.068 -56.1208 191.912 -58.5297L179.952 -71.8644H180.004Z" fill="#F5EFE6" fill-opacity="0.05"/>
<path d="M295.919 154.76C287.586 155.576 280.659 148.639 281.474 140.293C282.079 134.119 287.06 129.117 293.225 128.499C301.571 127.656 308.524 134.62 307.696 142.992C307.078 149.165 302.097 154.168 295.932 154.773L295.919 154.76ZM316.423 116.151L312.467 120.837C311.179 122.378 308.945 122.694 307.262 121.601C301.558 117.955 294.276 116.678 286.942 119.166C284.681 119.929 282.604 121.035 280.685 122.391C278.753 123.76 277.4 124.299 277.728 121.364C279.384 109.793 288.493 101.276 299.402 99.3939C302.149 98.92 304.962 99.9863 306.763 102.119L316.423 113.571C317.041 114.308 317.041 115.401 316.423 116.138V116.151ZM357.419 154.76C351.254 154.155 346.26 149.165 345.655 142.979C344.827 134.62 351.78 127.656 360.126 128.485C366.291 129.104 371.272 134.106 371.877 140.28C372.692 148.626 365.752 155.563 357.432 154.747L357.419 154.76ZM372.652 122.391C370.733 121.035 368.657 119.929 366.396 119.166C359.062 116.691 351.78 117.968 346.076 121.601C344.38 122.68 342.159 122.364 340.871 120.837L336.915 116.151C336.297 115.401 336.297 114.321 336.915 113.584L346.575 102.132C348.376 99.9863 351.189 98.9332 353.936 99.4071C364.858 101.29 373.954 109.806 375.61 121.377C375.938 124.313 374.585 123.786 372.652 122.404V122.391ZM310.666 86.125C308.892 84.1505 306.355 83.0053 303.7 82.9921H303.661H303.621C271.13 82.9526 250.678 118.705 267.174 146.73C269.342 150.403 272.313 154.062 275.783 157.156C279.253 160.249 283.906 161.987 288.624 161.987H306.592C311.994 158.801 316.161 153.523 317.619 147.151C318.369 144.019 318.474 140.951 318.027 138.055C317.856 136.923 318.185 135.765 318.921 134.896L322.496 130.657C324.665 128.077 328.621 128.091 330.79 130.657L334.365 134.896C335.101 135.765 335.429 136.923 335.258 138.055C334.825 140.951 334.93 144.019 335.666 147.151C337.125 153.523 341.291 158.801 346.694 161.987H364.661C369.38 161.987 373.98 160.302 377.503 157.156C381.025 154.01 383.943 150.403 386.112 146.73C402.62 118.705 382.155 82.9395 349.664 82.9921H349.585C346.93 82.9921 344.393 84.1373 342.619 86.125L330.658 99.4598C328.503 101.869 324.73 101.869 322.575 99.4598L310.614 86.125H310.666Z" fill="#F5EFE6" fill-opacity="0.05"/>
<path d="M307.683 23.0188C308.511 31.3777 301.558 38.3412 293.212 37.5119C287.047 36.8932 282.066 31.891 281.461 25.7173C280.646 17.3716 287.586 10.4344 295.906 11.2505C302.07 11.856 307.065 16.845 307.67 23.0319L307.683 23.0188ZM316.423 52.4262L306.763 63.8786C304.962 66.0242 302.149 67.0773 299.402 66.6034C288.48 64.721 279.384 56.2042 277.728 44.6334C277.4 41.6979 278.753 42.2245 280.686 43.6066C282.605 44.9625 284.681 46.0682 286.942 46.8317C294.276 49.3065 301.558 48.0296 307.262 44.3964C308.958 43.317 311.179 43.6329 312.467 45.1599L316.423 49.8462C317.041 50.5965 317.041 51.6759 316.423 52.4131V52.4262ZM371.864 25.7041C371.259 31.8779 366.278 36.88 360.113 37.4987C351.767 38.3412 344.814 31.3776 345.642 23.0056C346.26 16.8319 351.241 11.8297 357.406 11.2242C365.739 10.408 372.666 17.3453 371.851 25.691L371.864 25.7041ZM375.61 44.6465C373.954 56.2173 364.845 64.7342 353.936 66.6166C351.189 67.0905 348.376 66.0242 346.575 63.8917L336.915 52.4394C336.297 51.7022 336.297 50.6097 336.915 49.8725L340.871 45.1863C342.159 43.6461 344.393 43.3302 346.076 44.4228C351.78 48.0691 359.062 49.346 366.396 46.858C368.657 46.0946 370.734 44.9888 372.653 43.6329C374.585 42.2639 375.938 41.7242 375.61 44.6597V44.6465ZM322.627 66.5376C324.783 64.1287 328.555 64.1287 330.711 66.5376L342.672 79.8723C344.446 81.86 346.983 82.9921 349.638 83.0053H349.677H349.717C382.208 83.0447 402.66 47.2924 386.164 19.2671C383.996 15.5945 381.025 11.935 377.555 8.84158C374.019 5.69548 369.432 4.01054 364.714 4.01054H346.746C341.344 7.19613 337.177 12.4747 335.719 18.8459C334.969 21.9788 334.864 25.046 335.311 27.9419C335.482 29.074 335.153 30.2324 334.417 31.1012L330.842 35.3399C328.673 37.92 324.717 37.92 322.548 35.3399L318.973 31.1012C318.237 30.2324 317.909 29.074 318.08 27.9419C318.513 25.046 318.408 21.9788 317.672 18.8459C316.213 12.4747 312.047 7.19613 306.644 4.01054H288.677C283.958 4.01054 279.358 5.69548 275.835 8.84158C272.313 11.9877 269.395 15.5945 267.226 19.2671C250.718 47.2924 271.183 83.0579 303.674 83.0053H303.753C306.408 83.0053 308.945 81.86 310.719 79.8723L322.68 66.5376H322.627Z" fill="#F5EFE6" fill-opacity="0.05"/>
<path d="M295.919 -3.24261C287.586 -2.42648 280.659 -9.36368 281.474 -17.7094C282.079 -23.8831 287.06 -28.8853 293.225 -29.504C301.571 -30.3465 308.524 -23.3829 307.696 -15.0109C307.078 -8.83713 302.097 -3.83497 295.932 -3.22944L295.919 -3.24261ZM316.423 -41.8514L312.467 -37.1652C311.179 -35.625 308.945 -35.3091 307.262 -36.4017C301.558 -40.048 294.276 -41.3249 286.942 -38.837C284.681 -38.0735 282.604 -36.9677 280.685 -35.6119C278.753 -34.2429 277.4 -33.7032 277.728 -36.6387C279.384 -48.2094 288.493 -56.7263 299.402 -58.6087C302.149 -59.0826 304.962 -58.0163 306.763 -55.8838L316.423 -44.4315C317.041 -43.6943 317.041 -42.6018 316.423 -41.8646V-41.8514ZM357.419 -3.24261C351.254 -3.84814 346.26 -8.83714 345.655 -15.024C344.827 -23.3829 351.78 -30.3464 360.126 -29.5171C366.291 -28.8984 371.272 -23.8963 371.877 -17.7226C372.692 -9.37685 365.752 -2.43963 357.432 -3.25578L357.419 -3.24261ZM372.652 -35.6119C370.733 -36.9677 368.657 -38.0735 366.396 -38.837C359.062 -41.3117 351.78 -40.0348 346.076 -36.4017C344.38 -35.3223 342.159 -35.6382 340.871 -37.1652L336.915 -41.8514C336.297 -42.6017 336.297 -43.6812 336.915 -44.4183L346.575 -55.8707C348.376 -58.0163 351.189 -59.0694 353.936 -58.5955C364.858 -56.7131 373.954 -48.1963 375.61 -36.6255C375.938 -33.69 374.585 -34.2165 372.652 -35.5987V-35.6119ZM310.666 -71.8644C308.892 -73.839 306.355 -74.9842 303.7 -74.9974H303.661H303.621C271.13 -75.0369 250.678 -39.2845 267.174 -11.2592C269.342 -7.5866 272.313 -3.92712 275.783 -0.833679C279.253 2.25977 283.906 3.99736 288.624 3.99736H306.592C311.994 0.811768 316.161 -4.46682 317.619 -10.838C318.369 -13.9709 318.474 -17.0381 318.027 -19.934C317.856 -21.0661 318.185 -22.2245 318.921 -23.0933L322.496 -27.332C324.665 -29.912 328.621 -29.8989 330.79 -27.332L334.365 -23.0933C335.101 -22.2245 335.429 -21.0661 335.258 -19.934C334.825 -17.0381 334.93 -13.9709 335.666 -10.838C337.125 -4.46682 341.291 0.811768 346.694 3.99736H364.661C369.38 3.99736 373.98 2.31242 377.503 -0.833679C381.025 -3.97977 383.943 -7.5866 386.112 -11.2592C402.62 -39.2845 382.155 -75.05 349.664 -74.9974H349.585C346.93 -74.9974 344.393 -73.8521 342.619 -71.8644L330.658 -58.5297C328.503 -56.1208 324.73 -56.1208 322.575 -58.5297L310.614 -71.8644H310.666Z" fill="#F5EFE6" fill-opacity="0.05"/>
</svg>
